<?xml version="1.0" encoding="utf-8"?>
<svg viewBox="0 0 500 500" xmlns="http://www.w3.org/2000/svg">
  <path d="M 78.371 306.932 C 68.024 298.651 61.801 305.567 60.114 315.695 C 58.294 326.615 63.61 337.296 68.148 346.369 C 69.698 349.469 68.979 353.077 71.071 355.863 C 75.187 361.352 81.14 364.739 82.754 371.198 C 83.96 376.021 81.419 381.148 84.214 385.806 C 86.543 389.69 93.142 391.581 96.63 394.571 C 112.236 407.948 128.287 420.207 145.56 432.548 C 154.532 438.953 168.639 437.18 178.428 442.773 C 187.007 447.673 198.387 453.525 208.371 455.188 C 220.507 457.21 236.204 451.319 247.809 455.188 C 254.154 457.303 260.388 459.537 267.527 458.11 C 272.973 457.018 277.998 453.929 283.593 452.997 C 287.204 452.396 293.519 454.607 296.74 452.997 C 304.092 449.32 313.774 447.707 319.379 443.503 C 320.91 442.354 324.963 444.362 326.683 443.503 C 332.591 440.549 339.292 435.42 344.942 434.008 C 348.134 433.211 352.009 434.911 355.166 434.008 C 363.729 431.561 372.122 423.626 377.806 417.941 C 385.322 410.427 398.161 406.826 404.827 397.493 C 408.344 392.568 413.159 387.101 415.054 381.425 C 416.71 376.449 415.581 370.143 417.975 365.358 C 422.162 356.983 429.145 348.214 431.12 338.336 C 432.159 333.145 429.454 326.534 431.12 321.539 C 433.978 312.967 439.97 300.139 438.424 290.864 C 437.402 284.733 425.423 287.187 420.896 287.942 C 405.218 290.554 384.669 297.047 368.312 291.594 C 342.123 282.863 317.61 282.1 288.706 282.1 C 273.041 282.1 256.061 281.324 241.235 284.291 C 230.025 286.533 217.333 281.814 206.181 284.291 C 183.933 289.234 160.427 285.709 138.259 289.403 C 129.873 290.8 120.197 287.345 111.967 289.403 C 98.867 292.68 88.051 301.758 74.72 306.2" style="fill: rgb(255, 255, 255); stroke: rgb(255, 255, 255);"/>
  <g fill="#f9a059" transform="matrix(1.254703, 0, 0, 1.254703, -4.014637, 25.818123)" style="">
    <path d="M69.63 150.58c-1.92 16.82-17.09 30.95-15.41 47.79.61 6.17 3.49 11.86 6.31 17.38 3.66 7.17 7.36 14.39 12.37 20.69 10.47 13.15 26.02 21.41 42.05 26.46 6.35 2 12.91 3.57 19.57 3.58 13.14.03 25.58-5.94 36.51-13.23 9.56-6.38 19.45-14.2 30.92-13.71 12.58.54 22.19 10.8 32.73 17.69 18.81 12.3 43.98 14.21 64.43 4.87 10.08-4.6 18.84-11.63 27.07-19.04 8.22-7.41 16.23-15.61 20.28-25.91 3.81-9.66 3.81-20.35 3.57-30.73-.18-7.9-.6-16.22-4.81-22.9-3.34-5.3-8.8-9.12-11.61-14.72-4.7-9.39-.69-20.52 2.22-30.6a138.9 138.9 0 0 0 5.12-29.03c.16-2.36.22-4.88-1.02-6.89-2.7-4.37-9.23-3.5-14.13-1.95-11.82 3.76-23.39 8.31-34.6 13.63-7.63 3.62-15.68 7.7-24.06 6.67-4.28-.53-8.27-2.37-12.26-4.01-30.07-12.31-64.12-13.52-95.69-5.86-10.26 2.49-20.28 5.88-30.3 9.22-2.16.72-4.46 1.45-6.69.97-1.92-.41-3.53-1.67-5.1-2.86-11.92-8.99-25.68-15.52-40.17-19.08-3.25-.8-7.05-1.33-9.62.82-1.39 1.17-2.14 2.92-2.69 4.66-3.03 9.62-1.32 20.01.42 29.95l5.91 33.9"/>
    <path d="M67.13 150.58c-1.59 13.17-10.98 23.82-14.34 36.47-1.9 7.17-1.33 14.3 1.44 21.17 1.48 3.67 3.31 7.19 5.11 10.71 1.8 3.5 3.63 7 5.65 10.38 3.85 6.43 8.49 12.32 14.15 17.26 5.35 4.67 11.35 8.57 17.7 11.75 6.43 3.22 13.2 5.8 20.1 7.8 7.94 2.3 16.09 3.51 24.33 2.37 7.49-1.03 14.63-3.76 21.3-7.26 6.65-3.49 12.63-7.98 18.94-12.01 5.85-3.73 12.34-7.22 19.47-7.2 6.58.02 12.48 3.17 17.79 6.79 5.76 3.92 11.04 8.53 17.04 12.08 5.98 3.54 12.56 6.14 19.33 7.71 13.7 3.18 28.47 2.39 41.59-2.79 14.15-5.58 26.33-15.82 37.01-26.44 5.16-5.13 9.97-10.82 13.26-17.35 3.64-7.22 5.08-15.16 5.48-23.18.37-7.53.36-15.36-.62-22.85-.49-3.71-1.34-7.29-2.87-10.71-1.5-3.34-3.79-6.18-6.24-8.87-2.33-2.55-4.83-5.01-6.54-8.05-1.74-3.09-2.33-6.58-2.25-10.09.18-7.6 3.1-14.88 5.05-22.15 2.21-8.26 3.64-16.74 4.32-25.26.28-3.55.57-7.44-1.67-10.47-1.9-2.56-4.86-3.65-7.97-3.82-3.08-.16-6.18.58-9.09 1.51-4.03 1.29-8.03 2.67-11.99 4.14-7.86 2.92-15.58 6.2-23.15 9.79-6.75 3.21-14.08 6.99-21.79 6.16-3.97-.43-7.72-2.16-11.37-3.67-3.67-1.52-7.4-2.89-11.19-4.09-14.99-4.75-30.79-6.99-46.51-6.96-15.81.03-31.54 2.39-46.76 6.63-8.3 2.32-16.4 5.23-24.62 7.8-1.63.51-3.38 1.03-5.05.44-1.72-.6-3.17-1.95-4.62-3.02-3.03-2.24-6.19-4.33-9.44-6.25-6.68-3.95-13.79-7.2-21.13-9.71-3.49-1.19-7.06-2.31-10.68-3.04-3.26-.66-7.04-.92-9.91 1.1-3.11 2.18-4.26 6.05-5 9.59-.85 4.05-1.05 8.22-.84 12.35.44 8.39 2.25 16.7 3.69 24.95l4.31 24.7c.23 1.33 1.86 2.08 3.08 1.75 1.41-.39 1.98-1.74 1.75-3.08l-4.36-24.99c-1.39-7.99-3.18-16.03-3.5-24.16-.15-3.78.04-7.57.94-11.26.72-2.96 1.64-6.27 5.2-6.44 3.3-.15 6.72 1.09 9.84 2.02 3.53 1.05 7.02 2.29 10.43 3.69 6.77 2.79 13.26 6.33 19.33 10.43 3.01 2.03 5.9 4.92 9.37 6.13 3.84 1.34 7.77-.3 11.41-1.52 15.21-5.08 30.5-9.86 46.47-11.83 15.01-1.86 30.34-1.75 45.27.72 7.56 1.25 15.02 3.09 22.28 5.53 3.62 1.22 7.15 2.62 10.68 4.08 3.7 1.53 7.45 2.86 11.47 3.16 7.72.57 15.07-2.75 21.88-5.97 7.24-3.43 14.54-6.67 22.03-9.51 3.87-1.47 7.77-2.85 11.69-4.14 2.83-.93 5.72-1.95 8.73-2.04 2.4-.07 4.98.49 5.75 3.08.43 1.45.29 3.03.2 4.52-.14 2.17-.35 4.34-.59 6.5-.93 8.09-2.71 16.03-5.01 23.83-2.06 6.99-4.44 14.35-3.8 21.73.31 3.55 1.26 6.98 3.08 10.06 1.79 3.02 4.24 5.57 6.6 8.14 2.35 2.55 4.54 5.17 5.94 8.38 1.32 3.04 2.01 6.39 2.37 9.66.8 7.37.83 15.04.38 22.44-.46 7.61-2.09 15.07-5.9 21.75-3.52 6.15-8.35 11.4-13.46 16.26-5.31 5.05-10.86 9.92-16.83 14.17-5.83 4.15-12.11 7.74-18.92 10.03-6.35 2.13-12.98 3.25-19.67 3.36-13.59.22-27-3.71-38.21-11.42-10.6-7.28-20.99-17.77-34.87-17-14.6.81-25.73 12.29-37.91 19-6.45 3.55-13.38 6.35-20.69 7.47-7.66 1.17-15.3-.09-22.67-2.23-13.04-3.78-25.91-9.63-36.12-18.74-5.47-4.88-9.84-10.61-13.52-16.94-1.94-3.33-3.71-6.75-5.46-10.18-1.76-3.44-3.59-6.89-4.87-10.55-2.24-6.39-2.05-12.62.06-19 1.99-6.02 5.15-11.56 7.89-17.26 2.77-5.77 5.11-11.67 5.88-18.06.16-1.34-1.27-2.5-2.5-2.5-1.55.02-2.4 1.17-2.56 2.52h0z"/>
    <path d="M207.69 89.02c-.22 8.52 3.81 16.51 7.74 24.08l8.39 16.15c2.41 4.65 4.87 9.35 8.36 13.26 3.01 3.36 6.7 6.02 10.47 8.49 14.91 9.74 31.74 16.92 44.51 29.33 5.84 5.67 10.67 12.3 16.44 18.04 12.35 12.29 28.97 20.2 46.29 22.02"/>
    <path d="M205.19 89.02c-.13 7.26 2.49 14.08 5.62 20.5 3.23 6.63 6.76 13.13 10.16 19.67 3.14 6.04 6.27 12.18 11.25 16.95 4.91 4.7 10.93 8.25 16.75 11.7 11.09 6.56 22.8 12.43 32.66 20.83 5.27 4.49 9.69 9.77 14.22 14.97 4.42 5.08 9.11 9.76 14.5 13.8 11.5 8.61 25.27 13.89 39.53 15.43 1.34.15 2.5-1.25 2.5-2.5 0-1.47-1.15-2.35-2.5-2.5-12.15-1.32-23.91-5.77-34.02-12.62-5.16-3.5-9.75-7.67-13.93-12.28-4.54-5.01-8.71-10.36-13.63-15.03-9.31-8.84-20.62-15.09-31.67-21.44-5.55-3.19-11.15-6.4-16.35-10.16-2.65-1.92-5.12-4.1-7.21-6.63-1.99-2.41-3.58-5.15-5.08-7.89-3.88-7.13-7.54-14.39-11.26-21.61-3.4-6.61-6.7-13.61-6.57-21.22.09-3.18-4.91-3.18-4.97.03h0z"/>
    <path d="M349.76 173.14c-.2-.8-.42-1.61-.86-2.32-.9-1.47-2.57-2.24-4.03-3.15-7.01-4.37-10.31-13.04-10.61-21.3-.3-8.25 1.89-16.36 3.52-24.45 2.2-10.89 3.41-21.97 3.62-33.07.02-1.3-.01-2.73-.86-3.7-.97-1.11-2.63-1.23-4.1-1.2-24.5.6-46.45 22.08-70.49 17.35-7.31-1.44-13.94-5.23-21.14-7.13-13.4-3.53-27.6-.27-41.42-1.29-9.02-.66-17.94-3.15-26.97-2.61-13.44.81-25.46 8.15-38.07 12.86-4.42 1.65-9.11 3-13.8 2.48-4.4-.49-8.44-2.59-12.37-4.65L75.95 81.92l-2.54-.01c-5.88 4.42-7.16 12.74-6.61 20.08 1.01 13.49 6.54 26.66 5.2 40.12-1 10.07-5.75 19.31-9.64 28.65-5.73 13.77-9.71 28.28-11.81 43.05-.33 2.3-.59 4.75.35 6.88 1.03 2.33 3.28 3.82 5.34 5.31 5.95 4.31 8.49 9.44 12.17 11.1 1.72 1.48 5 4.66 6 5.28 5.14 3.2 11.2 4.59 16.14 8.11 3.29 2.34 4.8 2.73 7.76 5.46 1.1-.21 5.04 1.55 5.81 2.02 5.94-.52 9.81 3.75 15.27 6.21 15.13 6.83 33.9 7.41 47.58-2 5.67-3.9 10.17-9.24 15.5-13.6 5.32-4.35 12.04-7.81 18.84-6.8 5.86.87 9.69 1.2 14.57 4.56 11.39 7.83 15.66 21.63 45.1 28.72 6.17 1.49 11.99 1.18 18.33.82 8.79-.49 16.79-2.29 24.19-7.05 8.04-5.17 16.12-10.38 23.11-16.9 21-19.57 30.23-50.94 23.15-78.79z"/>
    <path d="M352.17 172.48c-.52-1.98-1.34-3.66-2.96-4.95-1.37-1.1-2.98-1.82-4.36-2.89-2.66-2.06-4.62-4.96-5.92-8.04-3.1-7.39-2.41-15.58-.97-23.26 1.69-9.01 3.74-17.87 4.78-27 .53-4.65.89-9.31 1.06-13.98.15-3.93.69-8.87-3.89-10.48-3.13-1.1-7.18-.26-10.36.24-3.55.56-7.04 1.49-10.45 2.61-6.83 2.24-13.37 5.25-20.01 8.01-6.5 2.7-13.17 5.23-20.15 6.31-3.27.5-6.64.58-9.92.22-3.98-.43-7.81-1.76-11.53-3.19-3.81-1.46-7.57-3.09-11.51-4.18-4.32-1.2-8.83-1.71-13.31-1.87-8.83-.3-17.65.82-26.48.5-9.22-.32-18.23-2.9-27.47-2.84-8.38.06-16.36 2.64-24.02 5.83-7.7 3.21-15.34 7.42-23.55 9.19-4.33.93-8.4.41-12.45-1.31-4.06-1.73-7.93-4-11.83-6.05l-24.94-13.1-2.89-1.52c-.98-.51-1.97-1.22-3.1-1.31a18.96 18.96 0 0 0-2.5-.01c-1.7.11-3.17 1.79-4.21 3.03-1.11 1.34-2.02 2.79-2.73 4.38-3.06 6.89-2.55 14.57-1.41 21.83 1.35 8.64 3.94 17.1 4.5 25.85.55 8.65-1.7 16.64-4.95 24.58-3.29 8.03-6.87 15.87-9.56 24.13a178.12 178.12 0 0 0-6.36 26.06c-.64 3.87-1.76 8.28-.25 12.08 1.51 3.79 5.13 5.54 8.06 8.06 2.58 2.22 4.65 4.91 7.09 7.26.99.96 2.07 1.71 3.23 2.45 1.02.65 2.19 1.93 3.19 2.84 2.57 2.34 5.26 3.91 8.45 5.32 3.52 1.55 7.15 2.92 10.36 5.08a185.59 185.59 0 0 0 4.42 2.87c.54.34 1.08.69 1.59 1.08.87.66 1.69 1.76 2.76 2.05.48.13.64.01 1.03.08-.57-.09.37.12.38.12a34.35 34.35 0 0 1 1.62.55c1.35.52 2.45 1.29 3.93 1.32 3.45.06 6.1 1.64 8.98 3.4 3.3 2.01 6.75 3.59 10.4 4.83 14.06 4.76 30.74 4.5 43.46-3.8 6.78-4.42 11.76-10.95 18.28-15.67 3.21-2.32 6.84-4.3 10.81-4.92 3.43-.54 7.16.23 10.52.97 9.4 2.07 14.78 10.29 21.72 16.53 3.96 3.56 8.32 6.64 13.07 9.07 6.57 3.36 13.95 6.01 21.25 7.19 4.43.72 8.89.72 13.36.51 4.2-.2 8.4-.51 12.53-1.32 3.76-.74 7.41-1.92 10.89-3.54 3.81-1.77 7.28-4.21 10.78-6.52 6.94-4.58 13.78-9.45 19.67-15.35 5.1-5.11 9.5-10.95 13.06-17.23 7.11-12.52 11.03-26.88 11.23-41.28.11-6.99-.71-14.02-2.42-20.82-.78-3.12-5.61-1.8-4.82 1.33 5.3 21.13 1.05 44.11-10.76 62.33-6.49 10.02-15.3 17.77-25.1 24.46-5.08 3.47-10.28 7.36-16.06 9.59-5.74 2.22-11.75 2.99-17.86 3.31-3.32.18-6.65.3-9.98.07-3.28-.22-6.45-.97-9.61-1.85-5.06-1.41-10.01-3.23-14.65-5.71-6.56-3.51-11.84-8.31-17-13.61-2.14-2.2-4.3-4.4-6.7-6.31-3.87-3.09-8.07-5.12-12.96-5.98-2.89-.51-5.92-1.13-8.86-.95-3.13.19-6.09 1.07-8.93 2.37-5.67 2.6-10.25 6.95-14.71 11.21-4.38 4.17-8.81 8.1-14.37 10.61-5.03 2.27-10.61 3.32-16.11 3.44-5.63.12-11.22-.72-16.6-2.35-2.65-.8-5.3-1.75-7.77-3.03-2.44-1.26-4.67-2.89-7.13-4.1-2.55-1.25-5.24-2.01-8.1-1.82l1.26.34c-1.88-1.08-4.83-2.58-7.07-2.36l1.77.73c-2.16-1.97-4.59-3.4-7.01-5-2.85-1.88-5.65-3.48-8.79-4.84-2.94-1.27-6.08-2.42-8.75-4.23.35.24-.63-.53-.79-.67-.44-.38-.86-.77-1.29-1.16-1.01-.92-2-1.88-3.04-2.76-.73-.62-1.6-.98-2.34-1.58-1.05-.84-1.95-1.88-2.85-2.88-2.07-2.27-4.16-4.49-6.59-6.39-2.17-1.69-5.29-3.24-5.79-6.23-.53-3.19.55-6.93 1.11-10.06 2.62-14.68 7.24-28.71 13.16-42.37 2.87-6.64 5.78-13.38 6.96-20.57 1.19-7.24.45-14.46-.89-21.63-1.46-7.8-3.69-15.58-3.96-23.55-.2-6.07.9-12.67 5.97-16.6l-1.77.73 2.54.01-1.26-.34 36.7 19.28c5.65 2.96 11.41 5.45 17.93 4.69 6.34-.75 12.29-3.44 18.1-5.96 5.6-2.43 11.14-5.01 16.96-6.88 6.01-1.93 12.06-2.82 18.37-2.39 6.73.45 13.35 1.96 20.07 2.51 6.48.53 12.99.09 19.47-.18 6.37-.27 12.85-.45 19.13.79 6.18 1.22 11.83 4 17.74 6.05 5.28 1.83 10.78 2.74 16.37 2.4 5.1-.31 10.12-1.48 14.96-3.07 10.06-3.31 19.47-8.28 29.51-11.63 4.89-1.63 9.94-2.91 15.1-3.19.96-.05 2.18-.25 3.11.07.86.3.71 1.32.7 2.27-.03 3.5-.23 7.01-.5 10.51-.51 6.68-1.39 13.32-2.64 19.89-1.25 6.56-2.93 13.03-3.68 19.68-1.23 10.92 1 23.31 10.43 30.16.95.69 1.98 1.23 2.96 1.87 1.14.74 1.54 1.55 1.88 2.85.83 3.12 5.65 1.8 4.83-1.32z"/>
  </g>
  <g fill="#3d3d3e" transform="matrix(1.254703, 0, 0, 1.254703, -4.014637, 25.818123)" style="">
    <path d="M326.72 80.17c-15.35 8.66-31.89 15.21-49.02 19.4-3.25.8-6.66 1.51-9.92.75-2.19-.51-4.34-1.66-6.54-1.26-2.44.44-4.18 2.74-4.82 5.14-.64 2.39-.43 4.92-.4 7.4.06 5.51-18.84 2.43-20.6 7.65-1.61 4.76 5.21 17.87 7.13 22.51 1.96 4.75 16.37 7.39 20.08 10.95 3.17 3.05 4.95 7.23 7.42 10.88 3.27 4.84 7.73 8.72 12.15 12.54l16.65 14.12c5.94 4.83 12.18 9.56 19.44 11.97 7.85 2.6 16.39 2.32 24.54.91 2.29-.4 4.68-.94 6.41-2.49 3.57-3.21 2.69-8.96 1.21-13.53-1.8-5.55-4.07-10.95-6.62-16.2-2.26-4.65-4.74-9.2-6.51-14.05-4.71-12.89-4.13-27.27-.48-40.5 1.23-4.44 2.79-8.8 3.62-13.33 1.07-5.82.9-11.79.73-17.7-.04-1.31-.1-2.7-.8-3.81-1.14-1.79-3.56-2.26-5.68-2.16s-4.29.6-6.34.06l-1.65.75z"/>
    <path d="M325.46 78.01c-13.86 7.8-28.64 13.86-44 18.01-3.82 1.03-8.02 2.5-12.03 2.06-1.91-.21-3.66-1.12-5.55-1.43-1.96-.32-3.95-.13-5.66.95-3.36 2.12-4.59 6.01-4.74 9.8-.04 1.01-.01 2.02.01 3.03.01.39-.05.85.02 1.23.01.04.16-.56 0-.08-.13.39.28-.58.01-.08-.06.11.4-.42.06-.1-.34.33.22-.12.08-.03-.17.11-.34.22-.52.32-.08.05-.57.26-.23.12s-.19.07-.29.1a15.42 15.42 0 0 1-1.33.37c-.95.22-1.91.38-2.88.51-.29.04.02 0 .07-.01-.12.02-.24.03-.36.05l-.86.1-1.62.19a115.75 115.75 0 0 0-3.74.48c-3.58.53-8.35 1.55-9.09 5.77-.42 2.37.13 4.85.79 7.13.8 2.78 1.91 5.47 3.04 8.14.96 2.26 2 4.49 3.01 6.73l.55 1.24c.12.27-.07-.18-.08-.19.09.22.18.46.29.67.1.21.21.41.34.6.66.99 1.51 1.75 2.46 2.45 2 1.48 4.36 2.44 6.65 3.38 1.21.5 2.43.96 3.65 1.43l3.17 1.25c1 .42 1.99.87 2.93 1.41.22.12.43.26.64.39.08.05.56.39.31.2s.17.14.23.21c.37.35.72.72 1.06 1.1 2.32 2.62 3.79 5.9 5.69 8.81 4.32 6.63 10.62 11.62 16.55 16.73 6.3 5.44 12.59 10.97 19.31 15.88 6.36 4.65 13.35 8.19 21.22 9.26 3.99.55 8.01.59 12.03.23 3.82-.34 8.02-.68 11.57-2.25 7.03-3.11 6.66-11.38 4.68-17.59-2.53-7.95-6.18-15.4-9.85-22.86-3.51-7.15-5.94-14.52-6.48-22.51-.53-7.86.41-15.75 2.42-23.35 1.07-4.05 2.48-8.02 3.42-12.11.95-4.11 1.32-8.33 1.37-12.54.03-2.16-.02-4.33-.08-6.49-.05-1.96-.01-3.99-.83-5.81-1.55-3.41-5.45-4.31-8.87-4.04-.91.07-1.82.19-2.74.24-1 .05-1.94-.23-2.92-.23-.96.01-2.03.72-2.88 1.13-1.22.58-1.54 2.33-.9 3.42.73 1.25 2.2 1.48 3.42.9l1.62-.77-1.93.25c1.9.43 3.72.31 5.64.14 1.32-.12 2.83-.32 4.09.23 1.15.5 1.2 1.61 1.25 2.73.09 2.05.12 4.11.14 6.16.02 3.92-.1 7.88-.85 11.74-.76 3.9-2.04 7.67-3.14 11.49-4.22 14.58-4.99 30.67.77 44.96 2.94 7.29 6.95 14.08 9.87 21.38 1.29 3.21 2.6 6.51 3.36 9.9.53 2.38.92 5.44-.61 7.54-1.74 2.4-5.62 2.61-8.3 2.99-3.73.53-7.52.74-11.28.53-7.43-.42-14.06-3.1-20.19-7.23-6.32-4.25-12.08-9.37-17.85-14.32-5.7-4.89-11.87-9.62-16.66-15.45-3.89-4.73-5.87-11.56-11.21-14.97-3.88-2.48-8.77-3.68-12.78-5.48-.98-.44-1.95-.92-2.88-1.47-.41-.24-.81-.5-1.2-.78.43.32-.13-.11-.17-.15-.2-.18-.39-.37-.57-.56-.43-.44.23.43-.06-.08-.09-.15-.17-.3-.26-.45.43.75-.34-.79-.44-1.01l-1.29-2.86c-2.03-4.47-4.23-9.05-5.18-13.91-.05-.25-.1-.5-.13-.76.08.52-.02-.25-.03-.29-.03-.44-.03-.86-.02-1.3.02-.65-.14.5.01-.1.04-.16.11-.34.13-.51-.08.51-.14.38-.02.1.16-.37-.38.46.05-.04.12-.14.52-.37-.04 0 .13-.09.27-.19.41-.26l.46-.24c.54-.28-.52.18.08-.03.86-.3 1.73-.53 2.62-.71.46-.09.92-.17 1.38-.24l.72-.11c.8-.11-.5.06.31-.04l2.98-.35c2.06-.24 4.15-.45 6.16-.97 1.6-.41 3.3-1.05 4.41-2.33 1.95-2.25.92-5.51 1.19-8.21.26-2.58 1.64-5.5 4.67-4.88 1.88.39 3.6 1.16 5.52 1.4 2.14.27 4.25.07 6.36-.3 3.79-.66 7.53-1.77 11.22-2.84 3.65-1.06 7.26-2.23 10.84-3.5a200.48 200.48 0 0 0 21.17-8.93 198.37 198.37 0 0 0 9.68-5.1c2.79-1.59.27-5.92-2.54-4.33z"/>
  </g>
  <g fill="none" class="R S" transform="matrix(1.254703, 0, 0, 1.254703, -4.014637, 25.818123)" style="stroke: rgb(0, 0, 0); stroke-miterlimit: 10;">
    <g stroke-width="16">
      <path d="M333.26 148.34c.31-.79.52-1.64.61-2.55l5.7-56.38c.74-7.28-6.67-12.63-13.35-9.65l-50.2 22.4c-21.83-10.11-46.9-15.86-73.57-15.86s-51.74 5.75-73.57 15.86l-50.2-22.4C72 76.78 64.6 82.13 65.33 89.41l5.7 56.38c.09.91.3 1.76.61 2.55-14.01 19.44-22.08 42.25-22.08 66.65 0 71.07 68.45 128.69 152.88 128.69s152.88-57.62 152.88-128.69c.01-24.4-8.05-47.21-22.06-66.65z"/>
      <path d="M34.82 241.39l16.83-.5m-13.23 20.89l16.5-3.36m-5.77 23.24l16.01-5.21m304.92-35.06l-16.83-.5m13.23 20.89l-16.5-3.36m5.78 23.24l-16.02-5.21" class="T" style="stroke-linecap: round;"/>
    </g>
    <g class="U T" style="stroke-linecap: round; stroke-width: 7px;">
      <path d="M202.45 278.43v12.46"/>
      <path d="M166 293.53c3.17 8.4 11.56 13.58 20.13 12.62 7.7-.87 16.33-7.38 16.33-15.4"/>
      <path d="M202.45 278.43v12.46m36.46 2.64c-3.17 8.4-11.56 13.58-20.13 12.62-7.7-.87-16.33-7.38-16.33-15.4"/>
    </g>
  </g>
  <path d="M 252.346 373.847 L 259.886 367.259 C 262.369 365.089 260.841 360.997 257.541 360.997 L 242.445 360.997 C 239.146 360.997 237.615 365.089 240.099 367.259 L 247.64 373.847 C 248.991 375.013 250.994 375.013 252.346 373.847 Z" class="R S U" style="stroke: rgb(0, 0, 0); stroke-miterlimit: 10; stroke-width: 7px;"/>
  <ellipse cx="194.065" cy="308.464" rx="18.042" ry="22.848" class="R U" style="stroke: rgb(0, 0, 0); stroke-width: 7px;"/>
  <circle cx="199.886" cy="296.57" r="5.822" fill="#ebf6f6" stroke-width=".25" class="R" style="stroke: rgb(0, 0, 0);"/>
  <ellipse cx="305.933" cy="308.464" rx="18.042" ry="22.848" class="R U" style="stroke: rgb(0, 0, 0); stroke-width: 7px;"/>
  <circle cx="311.755" cy="296.57" r="5.822" fill="#ebf6f6" stroke-width=".25" class="R" style="stroke: rgb(0, 0, 0);"/>
  <g stroke-width="9" class="R" transform="matrix(1.254703, 0, 0, 1.254703, -4.014637, 25.818123)" style="stroke: rgb(0, 0, 0);">
    <ellipse transform="matrix(.8861 -.4635 .4635 .8861 -73.456 85.8889)" cx="138.03" cy="192.41" rx="9.46" ry="2.72"/>
    <ellipse transform="matrix(.4635 -.8861 .8861 .4635 -27.31 339.7061)" cx="266.87" cy="192.41" rx="2.72" ry="9.46"/>
  </g>
  <g stroke-width="5" class="S" transform="matrix(1.254703, 0, 0, 1.254703, -4.014637, 25.818123)" style="stroke-miterlimit: 10;">
    <path d="M315.15 113.58l-2.65 17.05c-.86 2.94-4.44 4.04-6.8 2.1l-2.48-12.87c-2.37-1.94-11.96-3-9.25-4.42l16.87-10.4c3.34-1.74 5.37 4.93 4.31 8.54z" fill="#fff" stroke="#fff"/>
    <path d="M312.33 103.6l-24.76 14.98" fill="none" class="R T" style="stroke: rgb(0, 0, 0); stroke-linecap: round; stroke-miterlimit: 10;"/>
  </g>
  <path d="M 356.8 177.987 L 367.803 178.012 L 370.551 178.012 L 371.015 178.012 C 372.082 178.111 371.731 177.71 369.948 176.819 C 369.937 176.795 369.924 176.758 369.911 176.732 C 369.886 177.133 369.899 177.221 369.911 176.995 C 369.747 178.111 368.82 179.328 368.081 180.257 C 367.275 181.262 366.875 182.428 367.427 183.683 C 367.942 184.85 369.007 185.578 370.288 185.615 L 373.624 185.717 L 375.179 185.766 L 376.072 185.791 C 376.975 185.879 376.699 185.691 375.231 185.227 L 374.427 183.847 C 374.252 183.382 374.591 182.428 374.365 183.584 L 374.189 184.423 L 373.651 186.506 C 373.296 187.699 372.897 188.865 372.396 190.007 C 371.868 191.186 371.792 192.416 372.646 193.495 C 373.373 194.41 374.754 195.051 375.947 194.624 L 376.574 194.436 C 376.485 194.498 376.386 194.512 376.298 194.473 C 376.147 194.436 376.171 194.448 376.36 194.498 C 376.373 194.324 376.713 194.912 376.447 194.498 C 376.937 195.252 377.227 196.631 377.727 197.623 C 378.492 199.129 380.612 199.566 382.018 198.753 C 383.549 197.85 383.914 195.978 383.148 194.461 C 382.822 193.821 382.571 192.818 382.194 192.002 C 381.719 190.96 381.016 190.106 380.074 189.43 C 378.442 188.25 376.184 187.886 374.276 188.589 L 377.816 193.193 C 378.567 191.5 379.26 189.78 379.76 187.987 C 380.238 186.33 380.991 184.148 380.564 182.428 C 379.961 180.031 377.739 179.581 375.62 179.518 L 370.276 179.354 L 372.496 184.711 C 373.963 182.867 375.531 180.886 375.972 178.502 C 376.548 175.377 375.431 172.028 371.83 171.776 C 369.433 171.612 366.975 171.754 364.577 171.754 C 361.979 171.754 359.383 171.739 356.787 171.739 C 352.759 171.701 352.759 177.975 356.8 177.987 L 356.8 177.987 Z" style=""/>
  <g stroke-width="5" class="S" transform="matrix(1.254703, 0, 0, 1.254703, -4.014637, 25.818123)" style="stroke-miterlimit: 10;">
    <path d="M89.75 113.58l2.65 17.05c.86 2.94 4.44 4.04 6.8 2.1l2.48-12.87c2.37-1.94 11.96-3 9.25-4.42l-16.87-10.4c-3.34-1.74-5.36 4.93-4.31 8.54z" fill="#fff" stroke="#fff"/>
    <path d="M92.57 103.6l24.77 14.98" fill="none" class="R T" style="stroke: rgb(0, 0, 0); stroke-linecap: round; stroke-miterlimit: 10;"/>
  </g>
  <path d="M 143.198 171.713 L 135.632 171.726 C 133.161 171.726 130.614 171.576 128.154 171.754 C 124.641 172.002 123.449 175.2 123.976 178.3 C 124.405 180.759 125.972 182.792 127.478 184.687 L 129.698 179.328 L 124.352 179.492 C 122.207 179.555 120.074 180.019 119.409 182.403 C 118.947 184.074 119.748 186.343 120.211 187.961 C 120.727 189.743 121.405 191.463 122.158 193.169 L 125.696 188.566 C 123.788 187.862 121.544 188.239 119.899 189.404 C 118.977 190.06 118.246 190.947 117.779 191.977 C 117.401 192.791 117.151 193.797 116.823 194.436 C 116.059 195.942 116.424 197.836 117.956 198.728 C 119.346 199.543 121.479 199.117 122.244 197.597 C 122.746 196.619 123.049 195.227 123.525 194.473 C 123.487 194.537 123.336 194.586 123.324 194.624 C 123.336 194.586 123.788 194.324 123.449 194.524 C 123.701 194.387 123.889 194.485 123.487 194.448 C 123.261 194.425 123.965 194.586 124.015 194.611 C 125.168 195.038 126.625 194.41 127.315 193.481 C 128.131 192.391 128.092 191.211 127.565 189.996 C 127.063 188.865 126.661 187.687 126.31 186.493 L 125.821 184.612 L 125.644 183.771 L 125.52 183.131 C 125.431 182.617 125.445 182.856 125.546 183.821 L 124.742 185.202 C 123.285 185.667 123 185.853 123.901 185.766 L 124.792 185.741 L 126.347 185.691 L 129.686 185.59 C 130.941 185.553 132.081 184.838 132.546 183.657 C 133.048 182.39 132.722 181.262 131.894 180.234 C 131.153 179.304 130.237 178.111 130.061 176.97 C 130.086 177.145 130 176.783 130.025 176.795 C 128.305 177.636 127.868 178.037 128.72 177.987 L 129.409 177.987 L 132.157 177.987 L 143.161 177.961 C 147.24 177.975 147.251 171.701 143.198 171.713 L 143.198 171.713 Z" style=""/>
  <g class="R S" transform="matrix(1.254703, 0, 0, 1.254703, -4.014637, 25.818123)" style="stroke: rgb(0, 0, 0); stroke-miterlimit: 10;">
    <path d="M206.99 38.8V28.69" fill="#f6b2d0" stroke-width="10" class="T" style="stroke-linecap: round;"/>
    <g fill="#1c75bc" class="V" style="stroke-width: 6px;">
      <path d="M302.01 20.4c0 5.75-12.65 9.4-37.44 9.4s-57.58-4.84-57.58-6.65c0 0 32.79-10.7 57.58-10.7s37.44 2.2 37.44 7.95z"/>
      <path d="M112.87 20.4c0 5.75 12.65 9.4 37.44 9.4s56.68-4.84 56.68-6.65c0 0-31.89-10.7-56.68-10.7s-37.44 2.2-37.44 7.95z"/>
    </g>
    <path d="M153.58 99.44l-21.85 29.78c21.69-4.99 49.23-10.42 84.37-7.6 14.94 1.2 21.36 2.23 32.34 5.64 4.99-9.4 8.05-16.84 13.05-26.25-15.16-2.51-21.74-4.81-52.61-4.81-26.55.01-39.45 1.08-55.3 3.24z" fill="#006838" stroke-linejoin="round" class="V" style="stroke-width: 6px;"/>
  </g>
  <g fill="#ffde17" transform="matrix(1.254703, 0, 0, 1.254703, -4.014637, 25.818123)" style="">
    <path d="M208.51 39.63c-6.99.4-13.67 4.4-17.32 10.37-.8 1.31-1.46 2.7-2.12 4.09l-4.27 9.01c-.82 1.72-1.64 3.46-2.17 5.29-.52 1.79-.76 3.64-.99 5.49l-1.58 12.39c-.15 1.18-.3 2.39-.09 3.56.56 3.18 3.68 5.39 6.86 5.99 3.17.6 6.43-.05 9.62-.58a126.25 126.25 0 0 1 29.64-1.37c1.71.12 3.72.16 4.77-1.19.4-.51.59-1.15.72-1.79 1.34-6.59-3.16-12.76-5.3-19.13-.77-2.29-1.24-4.67-1.85-7.02a61.15 61.15 0 0 0-12.96-24.62l-2.96-.49z"/>
    <path d="M208.51 37.13c-5.81.38-11.31 2.75-15.55 6.76-4.71 4.45-6.96 10.87-9.67 16.6-1.42 3-2.91 5.98-3.54 9.27-.66 3.48-.98 7.05-1.42 10.56l-.69 5.45c-.22 1.7-.41 3.38.01 5.07.67 2.76 2.85 5.05 5.36 6.28 3.02 1.48 6.32 1.63 9.61 1.23 3.55-.43 7.05-1.15 10.61-1.54a125.1 125.1 0 0 1 20.93-.56c2.91.16 6.33.66 8.49-1.8 2.07-2.35 1.88-6.22 1.4-9.1-.52-3.12-1.86-6.05-3.14-8.92-1.26-2.82-2.38-5.6-3.12-8.61-1.72-6.89-3.88-13.46-7.46-19.63-1.74-3-3.75-5.85-5.96-8.53-.86-1.05-1.56-1.83-2.9-2.06l-2.27-.39c-1.33-.23-2.69.35-3.08 1.75-.33 1.2.41 2.85 1.75 3.08l2.97.5-1.1-.64c3.43 3.98 6.29 8.41 8.56 13.15 2.31 4.82 3.55 9.85 4.9 14.99 1.38 5.22 4.36 9.83 5.7 15.05.27 1.04.44 2.07.46 3.15.01.72.1 2.35-.46 2.93-.39.41-1.57.27-2.09.25-1.53-.06-3.06-.2-4.59-.26-6.01-.25-12.03-.06-18.01.55-3.05.31-6.09.74-9.11 1.25-2.68.45-5.59 1.01-8.27.3-1.7-.45-3.52-1.51-4.19-3.23-.43-1.11-.21-2.38-.07-3.53l.6-4.68c.72-5.66 1.01-11.41 3.45-16.65l4.43-9.36c1.23-2.59 2.46-5.18 4.42-7.31 3.37-3.66 8.09-6.03 13.07-6.36 1.35-.09 2.5-1.09 2.5-2.5-.03-1.29-1.18-2.6-2.53-2.51z"/>
  </g>
  <g fill="#be1e2d" transform="matrix(1.254703, 0, 0, 1.254703, -4.014637, 25.818123)" style="">
    <path d="M215.24 39.63c-1.7 3.79 3.69 8.74 4.86 12.73.61 2.1 2.56 5.28 3.35 7.32.92 2.38 3.16 5.8 4.12 8.17 1.16 2.87 1.17 5.9 2.31 8.78 1.25 3.15 1.01 6.84 2.74 9.76 1.77 2.99-.54 8.35 2.67 9.68 1.53.63 8.8-2.58 10.32-1.95 3.26 1.35 6.64 2.72 10.16 2.65 3.53-.07 7.27-1.98 8.36-5.34.84-2.61-.06-5.46-1.26-7.93s-2.72-4.85-3.2-7.55c-.27-1.51-.2-3.07-.5-4.58-.34-1.68-1.12-3.23-1.98-4.71-6.97-12.11-19.38-20.96-33.1-23.61l-8.85-3.42z"/>
    <path d="M212.83 38.96c-1.15 2.84.26 5.92 1.69 8.37l2.27 3.74c.7 1.24 1 2.38 1.58 3.73l2.03 4.18 1.83 3.98c1.56 3.03 3.21 5.68 3.91 9.04.74 3.6 1.89 7.04 2.59 10.65a18.47 18.47 0 0 0 1.73 4.99c.4.77.42 1.81.44 2.99.04 2.69.11 5.74 2.66 7.34 2.01 1.26 4.5.4 6.59-.2l3.48-.99c.24-.06.47-.12.71-.17.1-.02.74-.13.4-.09-.35.04.22.01.29-.01s.15.01.22.01c-.24.03-.38-.17-.31-.01.09.19 1.07.44 1.28.53l1.51.59c.94.35 1.89.67 2.85.93 1.83.49 3.8.8 5.7.67 3.17-.22 6.44-1.49 8.5-4 2.5-3.04 2.61-7.01 1.27-10.6-1.25-3.37-3.72-6.41-4.06-10.07-.19-2.03-.28-4-1.05-5.91-.66-1.67-1.53-3.23-2.48-4.74-3.54-5.66-8.19-10.51-13.57-14.45-5.28-3.86-11.37-6.73-17.73-8.31-1.67-.41-3.12-.8-4.71-1.42l-5.46-2.11-1.09-.42c-1.25-.47-2.74.56-3.07 1.76-.39 1.41.48 2.59 1.75 3.08l8.25 3.19c1.9.73 3.99.97 5.94 1.59 2.76.88 5.42 2.02 7.97 3.41a48.1 48.1 0 0 1 13.88 11.34c1.84 2.19 3.47 4.58 4.83 7.09.78 1.44 1.31 2.89 1.44 4.53.15 1.87.29 3.71.93 5.49 1.58 4.36 7.68 11.93.99 14.92-2.93 1.31-6.22.48-9.1-.54-1.4-.5-2.83-1.39-4.33-1.5-.99-.07-2 .15-2.96.39-2.01.49-3.97 1.17-5.99 1.63-.12.03-.82.1-.15.04-.16.01-.35 0-.5.03-.39.08.36.07.52.15-.42-.2-.16-.03-.01.1-.07-.06-.31-.68-.16-.27-.06-.16-.09-.33-.13-.49-.17-.78.01.42-.05-.42-.03-.39-.04-.78-.04-1.17-.02-1.24-.03-2.46-.21-3.68-.22-1.47-1.02-2.6-1.5-3.98-.49-1.41-.7-2.91-.98-4.37-.32-1.68-.9-3.22-1.38-4.86-.6-2.03-.8-4.15-1.41-6.18-.5-1.67-1.29-3.24-2.12-4.77-1.5-2.79-2.76-5.6-4.19-8.42-1.38-2.73-2.29-5.61-3.9-8.23-.79-1.28-1.65-2.54-2.27-3.91-.57-1.24-.7-1.87-.3-2.87.51-1.25-.55-2.75-1.75-3.08-1.42-.37-2.56.51-3.07 1.76zm-20.54 2.6c-15.69 1.07-30.43 11.26-36.98 25.56a48.3 48.3 0 0 0-2.49 6.78c-1.38 4.86-2.01 10.13-.44 14.93s-1.92 9.96 3.12 10.36c3.47.27 18.18-.85 20.81-3.13s.92-6.64 2.58-9.69c.85-1.56.34-3.04.79-4.75l1.97-7.74c.86-3.61-.03-4.85 1.92-8 1.84-2.96 3.29-8.31 4.57-11.54 1.54-3.88 11.27-8.89 9.73-12.78h-5.58z"/>
    <path d="M192.29 39.06c-12.74.93-24.9 7.23-33.01 17.12-4.45 5.44-7.62 11.78-9.29 18.62-.96 3.95-1.35 8.02-.68 12.04.25 1.5.92 2.97.98 4.46.05 1.33-.09 2.64-.15 3.97-.12 2.72.79 5.32 3.64 6.16 1.78.52 3.85.33 5.68.24 4.8-.23 9.79-.65 14.44-1.9 2.1-.56 4.08-1.37 5.29-3.28 1.67-2.65.7-5.74 1.71-8.52.25-.69.65-1.34.81-2.08.21-.93.18-1.87.26-2.81.11-1.37.62-2.77.97-4.1.77-3 1.42-5.9 1.72-8.98.09-.94.67-2.15 1.3-3.25.79-1.39 1.39-2.89 1.96-4.38.97-2.53 1.68-5.83 2.92-7.75.06-.1.13-.19.2-.28-.03.04-.21.26-.02.04.17-.19.33-.39.51-.57.41-.44.84-.86 1.28-1.27.95-.89 1.93-1.73 2.9-2.61 1.78-1.61 3.74-3.43 4.53-5.76.35-1.04.41-2.22.05-3.26-.37-1.05-1.26-1.84-2.41-1.84l-5.59-.01c-3.22 0-3.22 5 0 5h5.58l-2.41-1.84c.12.33.32.37.07.05-.02-.03.11.91.03.08.01.09-.24.72-.01.16-.08.2-.2.39-.31.58-.41.7-.98 1.29-1.78 2.08-1.65 1.62-3.48 3.05-5.1 4.7-1.77 1.8-2.63 3.67-3.45 6.03-.96 2.74-1.76 5.62-3.19 8.17-.67 1.2-1.38 2.37-1.73 3.72-.32 1.26-.33 2.56-.48 3.84-.32 2.73-1.26 5.46-1.95 8.12-.37 1.44-.51 2.83-.64 4.31-.12 1.35-.93 2.52-1.16 3.88-.24 1.41-.22 2.83-.37 4.24-.05.43-.12.96-.31 1.39.08-.19-.36.6-.31.51-.08-.09-.17-.02-.26.21.35-.26.42-.32.2-.17-.22.08-.45.25-.67.36.64-.31-.44.15-.64.21-.91.29-1.85.5-2.78.69-2.32.47-4.2.7-6.49.92a82.26 82.26 0 0 1-6.09.4c-.72.02-1.46.05-2.18 0-.29-.02-.38-.02-.63-.08-.09-.03-.17-.05-.26-.08.22.1.2.08-.04-.06.14.07.25.17.32.32-.13-.25-.14-.23-.01.05-.05-.05-.17-.78-.09-.2-.03-.24-.03-.5-.03-.74 0-.46.03-.91.06-1.37.08-1.25.19-2.5.08-3.75-.15-1.68-.74-3.21-1.05-4.85-.33-1.72-.32-3.52-.18-5.26.5-6.38 3.12-12.81 6.66-18.1 7-10.47 19.01-17.63 31.6-18.54 1.35-.1 2.5-1.08 2.5-2.5 0-1.26-1.15-2.58-2.5-2.48z"/>
  </g>
  <g fill="none" class="R S V" transform="matrix(1.254703, 0, 0, 1.254703, -4.014637, 25.818123)" style="stroke: rgb(0, 0, 0); stroke-miterlimit: 10; stroke-width: 6px;">
    <path d="M207.11 96.2c21.62 0 41.03 1.19 54.38 4.81 3.15-5.96 2.89-10.9 2.89-17.82 0-26.91-24.72-44.39-57.38-44.39-26.25 0-47.65 9.11-54.66 34.23-2.6 9.33-2.47 21.97.65 27.9 13.34-3.56 32.64-4.73 54.12-4.73z"/>
    <path d="M231.63 96.92c.25-6.91-.19-18.17-4.73-31.04-4.45-12.63-16.04-25.5-19.91-27.07h-1.15c-6.04 4.43-17.83 14.44-22.28 27.07-4.54 12.87-4.98 24.13-4.73 31.04" class="T" style="stroke-linecap: round;"/>
  </g>
</svg>