<?xml version="1.0" encoding="utf-8"?>
<svg viewBox="0 0 500 500" xmlns="http://www.w3.org/2000/svg">
  <g fill="#ffe4bf" stroke-width="16" class="S T" transform="matrix(1.28039, 0, 0, 1.28039, -9.221353, 23.596104)" style="stroke: rgb(0, 0, 0); stroke-miterlimit: 10;">
    <path d="M331.62 115.97c.31-.78.51-1.62.6-2.52l5.64-55.78c.73-7.2-6.6-12.5-13.21-9.55L275 70.29c-21.59-10-46.4-15.69-72.78-15.69s-51.19 5.69-72.78 15.69L79.76 48.13c-6.61-2.95-13.93 2.35-13.21 9.55l5.64 55.78a9.68 9.68 0 0 0 .6 2.52c-13.86 19.23-21.84 41.8-21.84 65.93 0 70.31 67.71 127.31 151.24 127.31s151.24-57 151.24-127.31c.03-24.14-7.95-46.71-21.81-65.94z"/>
    <path d="M36.38 208.02l16.65-.49M39.94 228.2l16.32-3.33m-5.71 23l15.84-5.16m301.66-34.69l-16.66-.49m13.09 20.67l-16.32-3.33m5.71 23l-15.84-5.16" class="U" style="stroke-linecap: round;"/>
  </g>
  <g fill="#d39c6d" transform="matrix(1.28039, 0, 0, 1.28039, -9.221353, 23.596104)" style="">
    <path d="M69.61 51.15a128.12 128.12 0 0 0 .7 57.78c.98 4.01 2.17 8.13 1.47 12.2-.68 3.96-3.07 7.37-4.72 11.03-3.82 8.47-3.64 18.13-3.4 27.43.11 4.06.23 8.19 1.53 12.04 1.18 3.49 3.27 6.58 5.33 9.63 4.5 6.63 9.01 13.28 14.05 19.51 9.54 11.79 21.85 22.49 36.8 25.03 13.71 2.33 27.52-2.48 40.6-7.21 3.16-1.15 6.42-2.35 8.89-4.63 3.28-3.02 4.72-7.5 7.22-11.19 3.72-5.49 9.68-9.12 13.61-14.46 2.6-3.53 4.21-7.68 5.56-11.84 3.6-11.11 5.54-22.76 5.73-34.45.04-2.2 0-4.44-.73-6.51-.84-2.37-2.52-4.33-4.08-6.31-13.06-16.5-19.69-37.96-18.23-58.95.31-4.51.63-9.88-2.96-12.62-2.77-2.11-6.68-1.61-10.06-.76-9.78 2.44-18.98 6.86-28.78 9.24s-20.85 2.43-29.16-3.27c-3.49-2.4-6.29-5.67-9.57-8.35-8.17-6.65-19.46-9.27-29.72-6.89l-.08 3.55z"/>
    <path d="M67.2 50.48c-4.22 19.37-4.04 39.61.65 58.88 1.12 4.6 2.46 9.14.8 13.78-.73 2.03-1.83 3.9-2.81 5.82-1.06 2.08-1.98 4.22-2.66 6.45-2.74 8.89-2.39 18.75-1.88 27.94.28 4.96 1.29 9.59 3.74 13.95 2.3 4.12 5.17 7.97 7.85 11.84 5.2 7.51 10.64 14.94 17.1 21.42 5.84 5.87 12.57 11.12 20.21 14.42 8.65 3.73 17.74 4.58 27.03 3.25 4.87-.7 9.65-1.95 14.34-3.42 4.65-1.46 9.32-3.03 13.85-4.86 4.3-1.73 7.78-4.1 10.32-8.05 2.19-3.41 3.66-7.17 6.38-10.23 2.8-3.14 6.14-5.74 9.02-8.81 3.18-3.39 5.39-7.3 7.08-11.6 3.55-9.02 5.55-18.77 6.6-28.38.52-4.75 1.09-9.84.56-14.61-.27-2.39-.95-4.6-2.25-6.64-1.16-1.83-2.62-3.46-3.93-5.19-5.15-6.83-9.27-14.46-12.11-22.53-2.86-8.14-4.52-16.69-4.79-25.32-.13-4.12.33-8.19.34-12.29 0-3.8-.76-7.93-3.87-10.44-3.57-2.88-8.31-2.44-12.5-1.41-4.67 1.15-9.21 2.78-13.73 4.41-8.43 3.03-17.02 6.2-26.09 6.26-4.07.03-8.17-.55-11.95-2.11-4.02-1.66-7.08-4.59-10.2-7.52-3.17-2.98-6.58-5.63-10.54-7.5a39.5 39.5 0 0 0-12.36-3.51c-4.13-.48-8.32-.2-12.37.71-1.09.24-1.81 1.35-1.84 2.41l-.1 3.56c-.09 3.22 4.91 3.22 5 0l.1-3.56-1.84 2.41c7.62-1.71 15.81-.53 22.66 3.2 3.69 2.01 6.61 4.78 9.66 7.62 3.22 3 6.63 5.49 10.74 7.1 17.24 6.75 34.73-3.05 51.03-7.8 3.12-.91 7.98-2.74 10.97-.56 2.52 1.84 2.3 5.81 2.17 8.55-.19 4.13-.43 8.22-.21 12.36.23 4.25.77 8.5 1.59 12.68 1.63 8.27 4.48 16.32 8.35 23.8 1.95 3.77 4.19 7.4 6.69 10.84 2.35 3.23 5.8 6.35 6.37 10.49.29 2.15.12 4.41.04 6.57-.1 2.37-.26 4.73-.5 7.09-.47 4.65-1.25 9.26-2.29 13.81-1.93 8.45-4.27 17.61-10.45 24.01-2.82 2.93-6.04 5.46-8.73 8.52-2.75 3.11-4.41 6.73-6.51 10.26-.95 1.59-2.05 3.11-3.54 4.25-1.58 1.2-3.45 2.02-5.29 2.72-4.46 1.7-8.99 3.28-13.55 4.69-8.82 2.72-18.28 4.75-27.51 3.18-7.71-1.31-14.77-4.9-20.94-9.62-6.42-4.91-11.92-11.02-16.84-17.41-2.88-3.74-5.59-7.6-8.26-11.49-2.55-3.72-5.35-7.41-7.37-11.46-2.09-4.18-2.33-8.77-2.45-13.35-.12-4.46-.24-8.93.07-13.38.3-4.3 1.06-8.63 2.7-12.63 1.63-3.98 4.29-7.55 5.16-11.83 1-4.89-.36-9.68-1.5-14.41-1.11-4.62-1.98-9.3-2.55-14.02-1.13-9.41-1.21-18.95-.24-28.38.47-4.57 1.22-9.11 2.2-13.6.68-3.13-4.14-4.47-4.82-1.33z"/>
  </g>
  <g stroke-width="16" class="S T V" transform="matrix(1.28039, 0, 0, 1.28039, -9.221353, 23.596104)" style="fill: none; stroke: rgb(0, 0, 0); stroke-miterlimit: 10;">
    <path d="M332.1 116.15c.31-.78.51-1.62.6-2.52l5.64-55.78c.73-7.2-6.6-12.5-13.21-9.55l-49.66 22.16c-21.59-10-46.4-15.69-72.78-15.69s-51.19 5.69-72.78 15.69L80.24 48.31c-6.61-2.95-13.93 2.35-13.21 9.55l5.64 55.78a9.68 9.68 0 0 0 .6 2.52c-13.86 19.23-21.84 41.8-21.84 65.93 0 70.31 67.71 127.31 151.24 127.31s151.24-57 151.24-127.31c.03-24.14-7.95-46.71-21.81-65.94z"/>
    <path d="M36.86 208.2l16.65-.49m-13.09 20.67l16.33-3.33m-5.72 22.99l15.84-5.15m301.66-34.69l-16.65-.49m13.08 20.67l-16.32-3.33m5.71 22.99l-15.84-5.15" class="U" style="stroke-linecap: round;"/>
  </g>
  <g stroke-width="5" class="S" transform="matrix(1.28039, 0, 0, 1.28039, -9.221353, 23.596104)" style="stroke-miterlimit: 10;">
    <path d="M314.18 81.76l-2.62 16.87c-.85 2.9-4.39 4-6.73 2.08l-2.45-12.73c-2.34-1.92-11.83-2.97-9.15-4.37l16.69-10.29c3.3-1.73 5.31 4.87 4.26 8.44z" fill="#fff" stroke="#fff"/>
    <path d="M311.39 71.89L286.9 86.7" class="T U V" style="fill: none; stroke: rgb(0, 0, 0); stroke-linecap: round;"/>
  </g>
  <path d="M 358.123 138.062 L 369.236 138.087 L 372.014 138.087 L 372.475 138.087 C 373.576 138.189 373.205 137.78 371.361 136.858 C 371.49 136.602 371.272 137.409 371.323 137.012 C 371.157 138.113 370.21 139.38 369.48 140.29 C 368.66 141.314 368.251 142.505 368.814 143.785 C 369.338 144.976 370.427 145.718 371.733 145.757 L 375.1 145.86 L 376.675 145.91 L 377.572 145.937 C 378.494 146.026 378.199 145.833 376.701 145.36 L 375.882 143.952 C 375.715 143.491 376.048 142.479 375.83 143.67 L 375.651 144.528 L 375.113 146.64 C 374.767 147.831 374.358 149.022 373.845 150.162 C 373.308 151.366 373.231 152.62 374.102 153.721 C 374.844 154.655 376.253 155.308 377.469 154.874 C 377.674 154.797 377.891 154.745 378.097 154.682 C 378.007 154.745 377.904 154.758 377.802 154.72 C 377.649 154.682 377.674 154.694 377.866 154.745 C 377.879 154.72 377.943 154.758 378.007 154.809 C 378.327 155.039 377.968 154.797 377.93 154.732 C 378.404 155.475 378.711 156.884 379.224 157.882 C 380.004 159.419 382.168 159.867 383.602 159.035 C 385.164 158.113 385.535 156.205 384.755 154.655 C 384.434 154.029 384.179 152.991 383.794 152.171 C 383.308 151.109 382.59 150.252 381.643 149.56 C 379.979 148.369 377.699 147.998 375.766 148.702 L 379.378 153.401 C 380.133 151.685 380.836 149.944 381.349 148.139 C 381.822 146.461 382.59 144.246 382.156 142.505 C 381.541 140.072 379.288 139.611 377.136 139.547 L 371.746 139.38 L 374.012 144.848 C 375.497 142.978 377.086 140.969 377.533 138.562 C 378.122 135.386 376.982 131.98 373.321 131.724 C 370.9 131.557 368.416 131.698 365.997 131.698 C 363.372 131.698 360.747 131.686 358.123 131.686 C 354 131.659 354 138.062 358.123 138.062 L 358.123 138.062 Z" style=""/>
  <g stroke-width="5" class="S" transform="matrix(1.28039, 0, 0, 1.28039, -9.221353, 23.596104)" style="stroke-miterlimit: 10;">
    <path d="M91.2 81.76l2.62 16.87c.85 2.9 4.39 4 6.73 2.08L103 87.98c2.34-1.92 11.83-2.97 9.15-4.37L95.46 73.32c-3.3-1.73-5.3 4.87-4.26 8.44z" fill="#fff" stroke="#fff"/>
    <path d="M93.99 71.89l24.5 14.81" class="T U V" style="fill: none; stroke: rgb(0, 0, 0); stroke-linecap: round;"/>
  </g>
  <path d="M 142.492 131.659 L 134.848 131.673 C 132.351 131.673 129.79 131.519 127.294 131.698 C 123.721 131.955 122.505 135.207 123.043 138.356 C 123.479 140.853 125.053 142.902 126.59 144.823 L 128.856 139.355 L 123.466 139.522 C 121.276 139.586 119.112 140.06 118.446 142.479 C 117.973 144.169 118.78 146.461 119.253 148.113 C 119.765 149.918 120.457 151.66 121.224 153.375 L 124.835 148.676 C 122.903 147.96 120.623 148.344 118.959 149.535 C 118.023 150.2 117.281 151.101 116.807 152.146 C 116.423 152.978 116.167 154.003 115.847 154.63 C 115.066 156.167 115.437 158.1 116.999 159.009 C 118.421 159.842 120.597 159.406 121.378 157.857 C 121.877 156.858 122.198 155.437 122.672 154.707 C 122.634 154.758 122.467 154.835 122.454 154.874 C 122.467 154.835 122.928 154.566 122.582 154.771 C 122.838 154.617 123.018 154.732 122.607 154.694 C 122.352 154.668 123.095 154.835 123.133 154.861 C 124.311 155.296 125.796 154.655 126.5 153.708 C 127.333 152.594 127.294 151.391 126.756 150.148 C 126.244 149.009 125.846 147.818 125.489 146.628 L 124.989 144.733 L 124.81 143.875 L 124.695 143.234 C 124.605 142.71 124.618 142.953 124.72 143.952 L 123.9 145.36 C 122.403 145.833 122.108 146.026 123.03 145.937 L 123.927 145.91 L 125.502 145.86 L 128.868 145.757 C 130.149 145.718 131.314 144.989 131.788 143.785 C 132.301 142.492 131.967 141.34 131.122 140.29 C 130.38 139.368 129.458 138.139 129.279 137.012 C 129.342 137.371 129.125 136.589 129.24 136.858 C 127.46 137.73 127.012 138.139 127.896 138.087 L 128.587 138.087 L 131.365 138.087 L 142.479 138.062 C 146.602 138.062 146.615 131.659 142.492 131.659 L 142.492 131.659 Z" style=""/>
  <g class="T" transform="matrix(1.28039, 0, 0, 1.28039, -9.221353, 23.596104)" style="stroke: rgb(0, 0, 0);">
    <g class="S" style="stroke: rgb(0, 0, 0); stroke-miterlimit: 10;">
      <g class="U V W" style="fill: none; stroke-linecap: round; stroke-width: 7px;">
        <path d="M202.69 244.84v12.33m-36.06 2.61c3.14 8.31 11.44 13.43 19.91 12.48 7.62-.86 16.15-7.3 16.15-15.23"/>
        <path d="M202.69 244.84v12.33m36.07 2.61c-3.14 8.31-11.44 13.43-19.91 12.48-7.62-.86-16.15-7.3-16.15-15.23"/>
      </g>
      <path d="M204.56 243.78l5.87-5.12c1.98-1.73.76-4.99-1.87-4.99h-11.74c-2.63 0-3.85 3.26-1.87 4.99l5.87 5.12c1.07.94 2.67.94 3.74 0z" class="W" style="stroke-width: 7px;"/>
      <path d="M160.53 243.65c.98-2.21 3.29-6.53 8.37-10.52 5.21-4.08 10.67-5.74 13.39-6.4m62.56 16.92c-.98-2.21-3.29-6.53-8.37-10.52-5.21-4.08-10.67-5.74-13.39-6.4" stroke-width="4" class="U V" style="fill: none; stroke-linecap: round;"/>
    </g>
    <g stroke-width="9" fill="#f6b2d0">
      <ellipse transform="matrix(.9309 -.3653 .3653 .9309 -39.0392 58.9203)" cx="136.19" cy="132.63" rx="9.36" ry="2.28"/>
      <ellipse transform="matrix(.3653 -.9309 .9309 .3653 47.3889 334.7658)" cx="269.19" cy="132.63" rx="2.28" ry="9.36"/>
    </g>
    <path d="M180.7 185.1c-.5 1.67-2.51 6.07-6.14 10.08-3.71 4.1-7.18 5.6-10.13 6.47m60.26-16.55c.5 1.67 2.51 6.07 6.14 10.08 3.71 4.1 7.18 5.6 10.13 6.47" stroke-width="3" class="S U V" style="fill: none; stroke: rgb(0, 0, 0); stroke-linecap: round; stroke-miterlimit: 10;"/>
    <ellipse cx="158.59" cy="173.69" rx="14.22" ry="18.02" class="W" style="stroke-width: 7px;"/>
    <circle cx="163.18" cy="164.32" r="4.59" fill="#ebf6f6" stroke-width=".25"/>
    <ellipse cx="246.8" cy="173.69" rx="14.22" ry="18.02" class="W" style="stroke-width: 7px;"/>
    <circle cx="251.38" cy="164.32" r="4.59" fill="#ebf6f6" stroke-width=".25"/>
  </g>
  <g opacity=".43" fill="#ffe4bf" stroke-width="6" class="S T" transform="matrix(1.28039, 0, 0, 1.28039, -9.221353, 23.596104)" style="stroke: rgb(0, 0, 0); stroke-miterlimit: 10;">
    <path d="M178.97 209.82h-49.45a8.13 8.13 0 0 1-8.13-8.13v-10.8a8.13 8.13 0 0 1 8.13-8.13h49.45a8.13 8.13 0 0 1 8.13 8.13v10.8a8.13 8.13 0 0 1-8.13 8.13z" transform="matrix(1, 0, 0, 1, 0, 0)"/>
    <path d="M178.97 209.82h-49.45a8.13 8.13 0 0 1-8.13-8.13v-10.8a8.13 8.13 0 0 1 8.13-8.13h49.45a8.13 8.13 0 0 1 8.13 8.13v10.8a8.13 8.13 0 0 1-8.13 8.13z" transform="matrix(1, 0, 0, 1, 96.83999633789062, 0)"/>
    <path d="M187.1 193.72h31.12"/>
  </g>
  <g class="T" transform="matrix(1.28039, 0, 0, 1.28039, -9.221353, 23.596104)" style="stroke: rgb(0, 0, 0);">
    <g stroke-width="6" class="S V" style="fill: none; stroke: rgb(0, 0, 0); stroke-miterlimit: 10;">
      <path d="M179 210.07h-49.45a8.13 8.13 0 0 1-8.13-8.13v-10.8a8.13 8.13 0 0 1 8.13-8.13H179a8.13 8.13 0 0 1 8.13 8.13v10.8a8.13 8.13 0 0 1-8.13 8.13z"/>
      <path d="M178.97 209.82h-49.45a8.13 8.13 0 0 1-8.13-8.13v-10.8a8.13 8.13 0 0 1 8.13-8.13h49.45a8.13 8.13 0 0 1 8.13 8.13v10.8a8.13 8.13 0 0 1-8.13 8.13z" transform="matrix(1, 0, 0, 1, 96.87000274658203, 0.25)"/>
      <path d="M187.13 193.97h31.12"/>
    </g>
    <circle cx="114.59" cy="197.69" r="2.86"/>
    <circle cx="113.72" cy="205.99" r="2.86"/>
    <circle cx="112.14" cy="214.28" r="2.86"/>
    <circle cx="108.69" cy="222.26" r="2.86"/>
    <circle cx="104.22" cy="230.11" r="2.86"/>
    <circle cx="96.5" cy="237.59" r="2.86"/>
    <circle cx="118.56" cy="189.87" r="2.86"/>
    <circle cx="86.86" cy="241.65" r="2.86"/>
    <circle cx="76.78" cy="240.45" r="2.86"/>
    <circle cx="290.8" cy="199.08" r="2.86"/>
    <circle cx="291.66" cy="207.37" r="2.86"/>
    <circle cx="293.24" cy="215.67" r="2.86"/>
    <circle cx="296.69" cy="223.65" r="2.86"/>
    <circle cx="301.16" cy="231.5" r="2.86"/>
    <circle cx="308.88" cy="238.97" r="2.86"/>
    <circle cx="286.83" cy="191.26" r="2.86"/>
    <circle cx="318.52" cy="243.04" r="2.86"/>
    <circle cx="328.6" cy="241.83" r="2.86"/>
  </g>
</svg>