<svg xmlns="http://www.w3.org/2000/svg" viewBox="0 0 404.9 356.13" xmlns:v="https://vecta.io/nano"><style><![CDATA[.Q{stroke-miterlimit:10}.R{stroke:#000}.S{stroke-linecap:round}.T{fill:none}.U{stroke-linejoin:round}.V{stroke-width:6}]]></style><path d="M228.54 305.68a269.41 269.41 0 0 0 45.5-11.48c12.3-4.28 25.25-11.31 32.2-16.23-.41-2.99-.8-4.18-2.29-8.12-2.67-7.04-6.48-12.1-9.33-15.29l-74.69 22.3c2.1 3.81 4.43 8.86 6.17 15.03a70.24 70.24 0 0 1 2.44 13.79zm-52.18 0a269.41 269.41 0 0 1-45.5-11.48c-12.3-4.28-25.25-11.31-32.2-16.23.41-2.99.8-4.18 2.29-8.12 2.67-7.04 6.48-12.1 9.33-15.29l74.69 22.3c-2.1 3.81-4.43 8.86-6.17 15.03a70.24 70.24 0 0 0-2.44 13.79z" fill="#fff" class="Q R U V"/><g fill="#be1e2d" class="Q R U V"><path d="M213.99 299.92h-23.14l-3.39-20.65h30.03z"/><path d="M221.47 328.3l-7.48-28.38h-23.14l-7.37 28.38h0l19 15.38 18.99-15.38z"/></g><g fill="#a7a9ac" stroke-width="16" class="Q R"><path d="M332.04 81.23a9.76 9.76 0 0 0 .61-2.53l5.65-55.86c.73-7.21-6.61-12.51-13.22-9.56l-49.74 22.19c-21.63-10.01-46.47-15.71-72.89-15.71s-51.26 5.7-72.89 15.71L79.83 13.28c-6.62-2.95-13.95 2.35-13.22 9.56l5.65 55.86c.09.9.3 1.74.61 2.53C58.99 100.49 51 123.09 51 147.26c0 70.41 67.81 127.49 151.46 127.49s151.46-57.08 151.46-127.49c0-24.17-8-46.77-21.88-66.03z"/><path d="M36.38 173.41l16.67-.49m-13.1 20.69l16.34-3.33m-5.72 23.03l15.87-5.16m302.09-34.74l-16.68-.49m13.11 20.69l-16.35-3.33m5.72 23.03l-15.86-5.16" class="S"/></g><g fill="#6d6e71" stroke="#6d6e71" class="U Q"><path d="M97.56 192.75l-27.89 9.58 4.03 7.75zm-8.04-21.44l-28.94 8.64-1.26-8.64zm217.82 21.44l27.89 9.58-4.03 7.75zm8.05-21.44l28.93 8.64 1.26-8.64z" stroke-width="8"/><path d="M160.89 74.05l-2.41-43.04-12.22 2.49zm41.56-5.25l6.23-41.64h-12.46zm41.56 5.25l2.42-43.04 12.21 2.49z" stroke-width="10"/></g><g class="R"><g stroke-width="16" class="T Q"><path d="M332.04 81.37a9.76 9.76 0 0 0 .61-2.53l5.65-55.86c.73-7.21-6.61-12.51-13.22-9.56l-49.74 22.19C253.71 25.6 228.87 19.9 202.45 19.9s-51.26 5.7-72.89 15.71L79.83 13.43c-6.62-2.95-13.95 2.35-13.22 9.56l5.65 55.86c.09.9.3 1.74.61 2.53C58.99 100.64 51 123.24 51 147.41c0 70.41 67.81 127.49 151.46 127.49s151.46-57.08 151.46-127.49c0-24.18-8-46.78-21.88-66.04z"/><path d="M36.38 173.55l16.67-.49m-13.1 20.7l16.34-3.34m-5.72 23.03l15.87-5.16m302.09-34.74l-16.68-.49m13.11 20.7l-16.35-3.34m5.72 23.03l-15.86-5.16" class="S"/></g><g stroke-width="7"><path d="M202.45 210.25v12.34m-36.11 2.62c3.14 8.33 11.46 13.45 19.94 12.5 7.63-.86 16.17-7.31 16.17-15.26" class="Q S T"/><path d="M202.45 210.25v12.34m36.12 2.62c-3.14 8.33-11.46 13.45-19.94 12.5-7.63-.86-16.17-7.31-16.17-15.26" class="Q S T"/><path d="M204.32 209.19l5.89-5.14c1.98-1.73.76-4.99-1.87-4.99h-11.78c-2.63 0-3.85 3.26-1.87 4.99l5.89 5.14c1.07.93 2.67.93 3.74 0z" class="Q"/><ellipse cx="158.28" cy="146.69" rx="14.24" ry="18.04"/></g><circle cx="162.88" cy="137.3" r="4.59" fill="#ebf6f6" stroke-width=".25"/><ellipse cx="246.62" cy="146.69" rx="14.24" ry="18.04" stroke-width="7"/><circle cx="251.21" cy="137.3" r="4.59" fill="#ebf6f6" stroke-width=".25"/></g><g stroke-width="5" class="Q"><path d="M314.1 46.93l-2.62 16.9c-.85 2.91-4.39 4-6.74 2.08l-2.45-12.75c-2.34-1.92-11.85-2.98-9.17-4.38l16.72-10.3c3.3-1.73 5.31 4.87 4.26 8.45z" fill="#fff" stroke="#fff"/><path d="M311.31 37.04l-24.53 14.84" class="R S T"/></g><path d="M286.78 54.58l8.69.02h2.17.36c.86.08.57-.24-.87-.96l-.03-.08c-.02.32-.01.39 0 .2-.13.87-.87 1.85-1.44 2.56-.64.8-.96 1.73-.52 2.73.41.93 1.26 1.51 2.28 1.54l2.64.08 1.23.04.7.02c.72.07.49-.08-.68-.45l-.64-1.1c-.13-.36.13-1.15-.04-.22l-.14.67-.42 1.65c-.27.94-.59 1.86-.99 2.75-.42.94-.48 1.92.2 2.78.58.73 1.68 1.24 2.63.9.16-.06.33-.1.49-.15-.07.05-.15.06-.23.03-.12-.03-.1-.02.05.02 0-.02.07.01.11.05.25.18-.03-.01-.06-.06.37.58.61 1.68 1.01 2.47.61 1.2 2.3 1.55 3.42.9 1.22-.72 1.51-2.21.9-3.42-.25-.49-.45-1.3-.75-1.94-.38-.83-.94-1.51-1.68-2.04-1.3-.93-3.08-1.22-4.59-.67l2.82 3.67c.6-1.34 1.14-2.7 1.54-4.11.37-1.31.97-3.04.63-4.4-.48-1.9-2.24-2.26-3.92-2.32l-4.22-.13 1.77 4.27c1.16-1.46 2.4-3.03 2.75-4.91.46-2.49-.43-5.15-3.3-5.34-1.89-.13-3.83-.02-5.73-.02-2.05 0-4.1-.01-6.16-.01-3.2-.03-3.2 4.97.02 4.98h0z"/><g stroke-width="5" class="Q"><path d="M90.8 46.93l2.62 16.9c.85 2.91 4.39 4 6.74 2.08l2.45-12.75c2.34-1.92 11.85-2.98 9.17-4.38l-16.72-10.3c-3.3-1.73-5.31 4.87-4.26 8.45z" fill="#fff" stroke="#fff"/><path d="M93.59 37.04l24.54 14.84" class="R S T"/></g><path d="M118.12 49.58l-5.98.01c-1.96 0-3.96-.12-5.91.02-2.79.2-3.74 2.74-3.32 5.2.34 1.95 1.57 3.55 2.77 5.06l1.77-4.27-4.22.13c-1.71.05-3.4.42-3.92 2.32-.37 1.33.26 3.12.63 4.4.4 1.41.94 2.77 1.54 4.11l2.82-3.67c-1.51-.56-3.29-.26-4.59.67a5.07 5.07 0 0 0-1.68 2.04c-.3.65-.5 1.45-.75 1.94-.61 1.2-.32 2.71.9 3.42 1.11.65 2.81.31 3.42-.9.39-.78.64-1.89 1.01-2.47-.03.04-.16.1-.17.13.01-.03.37-.24.1-.08.2-.12.34-.03.02-.06-.2-.02.38.11.42.13.92.34 2.08-.16 2.63-.9.65-.87.62-1.81.2-2.78-.4-.89-.71-1.82-.99-2.75l-.39-1.48-.14-.67-.1-.5c-.07-.41-.06-.22.02.56l-.64 1.1c-1.17.37-1.4.52-.68.45l.7-.02 1.23-.04 2.64-.08c1-.03 1.91-.6 2.28-1.54.4-1.01.14-1.91-.52-2.73-.58-.72-1.3-1.68-1.44-2.56.02.13-.04-.13-.03-.12-1.39.68-1.74 1-1.05.96h.54 2.17l8.69-.02c3.24-.02 3.25-5.02.02-5.01h0z"/><g class="R"><g stroke-width="9" fill="#f6b2d0"><ellipse transform="matrix(.8861 -.4635 .4635 .8861 -23.7624 124.7727)" cx="241.99" cy="110.74" rx="10.2" ry="2.93"/><ellipse transform="matrix(.4635 -.8861 .8861 .4635 -10.7204 203.766)" cx="162.91" cy="110.74" rx="2.93" ry="10.2"/></g><path d="M160.23 209.05c.98-2.21 3.29-6.54 8.38-10.53 5.21-4.09 10.68-5.74 13.41-6.41m62.65 16.94c-.98-2.21-3.29-6.54-8.38-10.53-5.21-4.09-10.68-5.74-13.41-6.41" stroke-width="4" class="Q S T"/></g></svg>