<svg xmlns="http://www.w3.org/2000/svg" xmlns:xlink="http://www.w3.org/1999/xlink" viewBox="0 0 404.9 356.13" xmlns:v="https://vecta.io/nano"><style><![CDATA[.Q{stroke:#000}.R{stroke-miterlimit:10}.S{stroke-width:7}.T{stroke-linecap:round}]]></style><g stroke-width="16"><ellipse cx="202.35" cy="177.89" rx="155.81" ry="131.15" fill="#a96b51" class="Q"/><ellipse cx="202.45" cy="250.48" rx="56.22" ry="33.85" fill="#905a44" stroke="#905a44"/><g class="Q"><ellipse cx="202.45" cy="178.24" rx="155.81" ry="131.15" fill="none"/><path d="M51.99 143.04l-22.81 7.8 14.47-75.67 82.57-18.69-38.77 59.05a69.11 69.11 0 0 1-35.46 27.51zm300.92 0l22.81 7.8-14.47-75.67-82.57-18.69 38.77 59.05a69.11 69.11 0 0 0 35.46 27.51z" fill="#613827" stroke-linejoin="round" class="R"/></g></g><g fill="none" class="S T Q R"><path d="M202.45 236.81v12.7m-37.15 2.69c3.23 8.57 11.78 13.84 20.51 12.86 7.85-.88 16.64-7.52 16.64-15.69"/><path d="M202.45 236.81v12.7m37.15 2.69c-3.23 8.57-11.78 13.84-20.51 12.86-7.85-.88-16.64-7.52-16.64-15.69"/></g><ellipse cx="202.45" cy="230.02" rx="11.05" ry="6.79" class="Q S"/><g class="R Q"><path d="M204.37 255.33l-1.68-.1c-.52 0-1.04.03-1.55.08-2.33 4.24-6.88 7.53-11.61 8.99-.21.82-.33 1.66-.33 2.54 0 6.41 6.04 11.61 13.49 11.61s13.49-5.2 13.49-11.61c0-.89-.13-1.75-.35-2.58-4.66-1.48-9.15-4.74-11.46-8.93z" fill="#c96b77" class="S"/><path d="M159.48 240.46c1-2.25 3.35-6.66 8.53-10.72 5.31-4.16 10.87-5.85 13.65-6.52m63.76 17.24c-1-2.25-3.35-6.66-8.53-10.72-5.31-4.16-10.87-5.85-13.65-6.52" fill="none" stroke-width="4" class="T"/></g><g stroke-width="9" fill="#f6b2d0" class="Q"><ellipse transform="matrix(.9309 -.3653 .3653 .9309 -36.4584 57.8586)" cx="134.68" cy="125.28" rx="9.54" ry="2.33"/><ellipse transform="matrix(.3653 -.9309 .9309 .3653 54.8883 331.0624)" cx="270.23" cy="125.28" rx="2.33" ry="9.54"/></g><ellipse cx="157.5" cy="167.13" rx="14.5" ry="18.36" class="Q S"/><circle cx="162.18" cy="157.57" r="4.68" fill="#ebf6f6" stroke-width=".25" class="Q"/><ellipse cx="247.4" cy="167.13" rx="14.5" ry="18.36" class="Q S"/><circle cx="252.08" cy="157.57" r="4.68" fill="#ebf6f6" stroke-width=".25" class="Q"/><g fill="none" stroke-width="6" class="R Q"><use xlink:href="#B"/><use xlink:href="#B" x="98.69"/><path d="M186.59 187.8h31.72"/></g><circle cx="112.66" cy="191.59" r="2.92" class="Q"/><circle cx="111.78" cy="200.04" r="2.92" class="Q"/><circle cx="110.17" cy="208.5" r="2.92" class="Q"/><circle cx="106.65" cy="216.63" r="2.92" class="Q"/><circle cx="102.1" cy="224.63" r="2.92" class="Q"/><circle cx="94.22" cy="232.25" r="2.92" class="Q"/><circle cx="116.7" cy="183.62" r="2.92" class="Q"/><circle cx="84.4" cy="236.39" r="2.92" class="Q"/><circle cx="74.13" cy="235.16" r="2.92" class="Q"/><circle cx="292.24" cy="193" r="2.92" class="Q"/><circle cx="293.13" cy="201.45" r="2.92" class="Q"/><circle cx="294.74" cy="209.91" r="2.92" class="Q"/><circle cx="298.26" cy="218.04" r="2.92" class="Q"/><circle cx="302.81" cy="226.04" r="2.92" class="Q"/><circle cx="310.68" cy="233.66" r="2.92" class="Q"/><circle cx="288.2" cy="185.03" r="2.92" class="Q"/><circle cx="320.5" cy="237.8" r="2.92" class="Q"/><circle cx="330.78" cy="236.58" r="2.92" class="Q"/><path d="M180.43 178.1c-.51 1.71-2.56 6.19-6.25 10.27-3.78 4.18-7.32 5.71-10.33 6.6m61.41-16.87c.51 1.71 2.56 6.19 6.25 10.27 3.78 4.18 7.32 5.71 10.33 6.6" fill="none" stroke-width="3" class="R T Q"/><g opacity=".43" fill="#a96b51" stroke-width="6" class="Q R"><use xlink:href="#B" x="-0.1"/><path d="M277.06 204.2h-50.71a8.13 8.13 0 0 1-8.13-8.13v-11.32a8.13 8.13 0 0 1 8.13-8.13h50.71a8.13 8.13 0 0 1 8.13 8.13v11.32c-.01 4.49-3.65 8.13-8.13 8.13z"/><path d="M186.49 187.8h31.72"/></g><defs ><path id="B" d="M178.46 204.2h-50.71a8.13 8.13 0 0 1-8.13-8.13v-11.32a8.13 8.13 0 0 1 8.13-8.13h50.71a8.13 8.13 0 0 1 8.13 8.13v11.32a8.13 8.13 0 0 1-8.13 8.13z"/></defs></svg>