<svg xmlns="http://www.w3.org/2000/svg" viewBox="0 0 404.9 356.13" xmlns:v="https://vecta.io/nano"><style><![CDATA[.Q{stroke-miterlimit:10}.R{stroke-width:7}.S{stroke-linecap:round}.T{stroke-width:6}.U{stroke-linejoin:round}]]></style><ellipse cx="202.45" cy="215.57" rx="151.7" ry="127.69" fill="#fff" stroke="#000" stroke-width="16"/><g fill="#a97c50"><path d="M177.95 89.19c-6.07 2.97-10.2 8.91-12.76 15.16-5.93 14.47-11.38 31.8-6.98 46.81 4.39 15.01 10.77 23.74 16.85 38.14 5.76 13.66 9.3 35.56 2.58 48.78-3.76 7.4-12.17 14.31-19.43 18.32-11.01 6.08-12.96 6.53-25.07 9.92-7.42 2.07-14.96 4.16-22.67 4.05-17.83-.25-33.6-12.3-44.15-26.67-4.74-6.45-8.74-13.52-11-21.2-1.87-6.38-2.51-13.05-2.96-19.68-1-14.7-1-30.04 5.2-43.41 6.56-14.15 19.22-24.34 31.45-34.01l31.91-25.21c2.97-2.35 5.79-.68 9.45-1.64s7.78-4.47 11.55-4.16c10.74.86 21.65-.52 31.83-4.04l4.2-1.16z"/><path d="M176.69 87.04c-7.68 3.85-11.83 11.38-14.87 19.05-3.41 8.61-6.23 17.5-7.31 26.73-.53 4.54-.52 9.09.13 13.61.65 4.51 2.14 8.88 3.77 13.12 3.08 8 7.22 15.5 10.94 23.21 3.46 7.17 6.27 14.44 7.87 22.26 1.51 7.38 2.24 15.26 1.02 22.74-.56 3.43-1.5 6.84-3.19 9.89-1.97 3.54-4.74 6.55-7.73 9.25-5.72 5.14-12.64 9-19.63 12.14-1.05.47-2.19.93-3.51 1.4-1.39.5-2.81.94-4.22 1.36a404.5 404.5 0 0 1-12.37 3.46c-8.74 2.31-17.58 3.66-26.47 1.33-15.58-4.08-28.12-16.41-36.44-29.74-4.94-7.92-7.97-16.45-9.07-25.73-1.1-9.25-1.6-18.76-1.02-28.06.55-8.83 2.43-17.66 6.7-25.47 4.04-7.37 9.77-13.58 15.97-19.19 6.73-6.09 13.99-11.58 21.11-17.2l12.06-9.53c3.98-3.14 7.87-6.48 11.97-9.46 1.39-1.01 2.9-.83 4.55-.81 2.12.03 4.11-.32 6.07-1.14 1.9-.8 3.68-1.89 5.59-2.67 1.95-.8 3.58-.64 5.64-.53a80.67 80.67 0 0 0 28.82-3.83c1.83-.59 3.68-1.1 5.53-1.61 3.1-.86 1.78-5.68-1.33-4.82-6.85 1.9-13.53 4.13-20.63 4.9-4.93.54-9.79.46-14.73.21-4.33-.21-7.65 2.75-11.55 4.05-1.76.59-3.51.38-5.33.42-2.35.05-4.25.78-6.09 2.22l-12.26 9.68-23.81 18.83c-6.73 5.41-13.35 11.07-18.88 17.75-5.81 7.02-10.12 14.96-12.32 23.83-2.27 9.11-2.56 18.6-2.17 27.94.41 9.78.99 19.94 4.27 29.24 3.05 8.66 8.04 16.56 13.89 23.6 5.29 6.36 11.57 12.03 18.71 16.25 7.13 4.22 15.19 6.91 23.51 7.15 9.88.28 19.59-2.87 28.98-5.55a87.58 87.58 0 0 0 17.96-7.31c7.7-4.16 14.9-9.28 20.22-16.33 4.71-6.24 6.43-13.94 6.7-21.64.29-8.13-.95-16.38-3.12-24.21-4.63-16.69-15.33-30.88-20.08-47.54-2.51-8.79-1.46-18.14.76-26.87 1.15-4.54 2.64-8.99 4.3-13.37 1.47-3.89 2.99-7.77 5.33-11.24 2.12-3.14 4.87-5.76 8.27-7.46 2.89-1.44.36-5.75-2.51-4.31zm52.49 2.15c6.07 2.97 10.2 8.91 12.76 15.16 5.93 14.47 11.38 31.8 6.98 46.81s-10.77 23.74-16.85 38.14c-5.76 13.66-9.3 35.56-2.58 48.78 3.76 7.4 12.17 14.31 19.43 18.32 11.01 6.08 12.96 6.53 25.07 9.92 7.42 2.07 14.96 4.16 22.67 4.05 17.83-.25 33.6-12.3 44.15-26.67 4.74-6.45 8.74-13.52 11-21.2 1.87-6.38 2.51-13.05 2.96-19.68 1-14.7 1-30.04-5.2-43.41-6.56-14.15-19.22-24.34-31.45-34.01l-31.91-25.21c-2.97-2.35-5.79-.68-9.45-1.64s-7.78-4.47-11.55-4.16c-10.74.86-21.65-.52-31.83-4.04l-4.2-1.16z"/><path d="M227.92 91.35c7.57 3.8 10.93 11.6 13.75 19.12 3.26 8.68 6 17.81 6.32 27.14.61 18.13-10.95 33.78-17.8 49.79-3.12 7.3-5.15 14.96-6.19 22.83-1.03 7.79-1.11 16.02 1.14 23.61 2.37 8.01 7.98 14.33 14.47 19.37 6.04 4.7 13.03 8.52 20.15 11.35 2.88 1.15 5.86 2.02 8.84 2.86 4.67 1.32 9.33 2.69 14.07 3.76 9.03 2.04 18.16 2.4 27.05-.46 16.22-5.22 29.27-18.29 37.86-32.65 2.38-3.99 4.41-8.21 5.92-12.61 1.62-4.72 2.49-9.63 3.07-14.58 1.11-9.46 1.61-19.2.93-28.71-.66-9.29-2.69-18.49-7.13-26.75-4.13-7.69-10.08-14.29-16.49-20.15-6.79-6.2-14.16-11.77-21.37-17.47l-24.77-19.57c-1.77-1.36-3.77-1.88-5.98-1.88-1.85 0-3.56.12-5.33-.54-3.94-1.46-7.25-4.2-11.68-3.9-9.78.68-19.57-.41-28.92-3.4-1.98-.63-3.97-1.2-5.97-1.75-3.11-.86-4.43 3.96-1.33 4.82l5.97 1.75c4.68 1.49 9.49 2.51 14.36 3.13 4.8.62 9.65.81 14.49.53 1.99-.11 3.49-.16 5.36.64 1.94.83 3.75 1.92 5.71 2.72 1.91.78 3.89 1.05 5.95 1.01 1.67-.03 3.08-.14 4.48.89 4.12 3.03 8.05 6.36 12.06 9.53l23.33 18.45c6.64 5.32 13.18 10.86 18.71 17.35 5.57 6.54 9.62 14.05 11.69 22.4 2.21 8.9 2.37 18.16 1.96 27.28-.42 9.45-1.04 19.12-4.35 28.07-2.97 8.02-7.86 15.47-13.45 21.92-5.24 6.04-11.35 11.35-18.4 15.17-7.02 3.81-14.84 5.83-22.84 5.36-4.91-.29-9.72-1.41-14.46-2.68l-12.2-3.42c-6.28-1.89-11.69-4.57-17.5-7.91-6.84-3.93-13.69-9.43-17.47-16.48-3.38-6.3-3.84-13.95-3.48-20.96.4-7.64 2-15.27 4.55-22.48 2.78-7.88 6.9-15.22 10.58-22.69 3.86-7.83 7.75-16.26 8.97-24.98 1.3-9.26-.23-18.66-2.83-27.57-1.28-4.39-2.84-8.7-4.53-12.95-1.54-3.87-3.23-7.62-5.77-10.95-2.41-3.17-5.36-5.9-8.94-7.7-2.91-1.41-5.44 2.9-2.56 4.34z"/></g><g stroke="#000"><ellipse cx="158.21" cy="220.02" rx="14.27" ry="18.07" class="R"/><circle cx="162.82" cy="210.62" r="4.6" fill="#ebf6f6" stroke-width=".25"/><ellipse cx="246.69" cy="220.02" rx="14.27" ry="18.07" class="R"/><circle cx="251.29" cy="210.62" r="4.6" fill="#ebf6f6" stroke-width=".25"/><g stroke-width="9"><ellipse transform="matrix(.8861 -.4635 .4635 .8861 -71.0832 85.5495)" cx="138.53" cy="187.41" rx="9.39" ry="2.7"/><ellipse transform="matrix(.4635 -.8861 .8861 .4635 -23.1493 336.5826)" cx="266.37" cy="187.41" rx="2.7" ry="9.39"/></g><g class="R"><g fill="none" class="Q S"><path d="M202.21 272.77v12.36m-36.17 2.62c3.15 8.34 11.47 13.47 19.97 12.52 7.64-.86 16.2-7.32 16.2-15.28"/><path d="M202.21 272.77v12.36m36.17 2.62c-3.15 8.34-11.47 13.47-19.97 12.52-7.64-.86-16.2-7.32-16.2-15.28"/></g><ellipse cx="202.21" cy="266.16" rx="10.76" ry="6.61"/><path d="M204.08 290.8l-1.63-.1c-.51 0-1.01.03-1.51.08-2.27 4.13-6.7 7.33-11.31 8.76a9.67 9.67 0 0 0-.32 2.47c0 6.24 5.88 11.3 13.13 11.3s13.13-5.06 13.13-11.3a9.56 9.56 0 0 0-.34-2.51c-4.53-1.45-8.9-4.62-11.15-8.7z" fill="#c96b77" class="Q"/></g><g stroke-width="16"><ellipse cx="202.52" cy="215.99" rx="151.7" ry="127.69" fill="none"/><path d="M55.96 181.72l-22.21 7.59 14.09-73.67 80.39-18.2-37.75 57.49c-8.2 12.52-20.35 21.94-34.52 26.79zm292.98 0l22.21 7.59-14.09-73.67-80.39-18.2 37.75 57.49c8.2 12.52 20.35 21.94 34.52 26.79z" fill="#754c29" class="Q U"/></g><path d="M204.05 38.6V28.57" fill="#f6b2d0" stroke-width="10" class="Q S"/><g fill="#1c75bc" class="T Q"><path d="M298.34 20.34c0 5.71-12.55 9.33-37.15 9.33s-57.13-4.81-57.13-6.6c0 0 32.53-10.62 57.13-10.62s37.15 2.19 37.15 7.89z"/><path d="M110.66 20.34c0 5.71 12.55 9.33 37.15 9.33s56.24-4.81 56.24-6.6c0 0-31.64-10.62-56.24-10.62s-37.15 2.19-37.15 7.89z"/></g><path d="M151.06 98.77l-21.68 29.55c21.52-4.95 48.85-10.34 83.72-7.54 14.83 1.19 21.19 2.21 32.09 5.6 4.95-9.33 7.99-16.71 12.95-26.04-15.05-2.49-21.58-4.77-52.2-4.77-26.35-.01-39.15 1.06-54.88 3.2z" fill="#006838" class="Q T U"/></g><g fill="#ffde17"><path d="M205.56 39.42c-6.93.39-13.57 4.37-17.19 10.29-.79 1.3-1.45 2.68-2.1 4.06l-4.24 8.94c-.81 1.71-1.62 3.43-2.15 5.25-.51 1.77-.75 3.61-.98 5.44l-1.57 12.3c-.15 1.17-.3 2.37-.09 3.53.56 3.16 3.66 5.35 6.8 5.95s6.38-.05 9.54-.57c9.7-1.61 19.6-2.07 29.41-1.36 1.69.12 3.69.16 4.74-1.18.4-.51.59-1.15.72-1.78 1.33-6.54-3.13-12.66-5.26-18.98-.76-2.28-1.23-4.64-1.83-6.96a60.65 60.65 0 0 0-12.86-24.43l-2.94-.5z"/><path d="M205.56 36.92c-5.74.38-11.16 2.71-15.37 6.64-4.72 4.41-6.97 10.83-9.67 16.55-1.48 3.13-2.99 6.22-3.6 9.66-.61 3.48-.95 7.02-1.39 10.52l-.63 4.92c-.22 1.75-.42 3.47.05 5.2.75 2.74 2.92 4.94 5.44 6.15 2.95 1.41 6.19 1.53 9.38 1.14 3.52-.43 7-1.14 10.53-1.53 6.89-.76 13.85-.95 20.77-.56 2.78.16 6.03.64 8.21-1.54 2.25-2.24 2.11-6.2 1.65-9.1-.48-3.03-1.74-5.88-2.98-8.66-1.26-2.85-2.44-5.65-3.21-8.68-.87-3.45-1.69-6.86-2.96-10.19-1.23-3.23-2.68-6.37-4.41-9.36-1.72-2.99-3.71-5.82-5.89-8.49-.87-1.07-1.59-1.97-2.98-2.21l-2.29-.39c-1.33-.23-2.69.35-3.08 1.75-.33 1.2.41 2.85 1.75 3.08l2.95.5-1.1-.64c3.35 3.89 6.16 8.23 8.4 12.85 2.35 4.87 3.59 9.94 4.97 15.13 1.37 5.15 4.32 9.71 5.64 14.86.26 1.03.44 2.06.45 3.12.01.71.1 2.32-.45 2.89-.38.4-1.53.26-2.06.24-1.44-.06-2.87-.19-4.31-.25-5.96-.26-11.94-.08-17.88.51a137.5 137.5 0 0 0-9.05 1.22c-2.61.44-5.46 1.03-8.09.42-1.75-.4-3.66-1.39-4.43-3.11-.45-1-.29-2.17-.18-3.22l.58-4.6c.73-5.73.98-11.63 3.46-16.93l4.32-9.13c1.21-2.55 2.39-5.13 4.29-7.25 3.36-3.75 8.11-6.2 13.16-6.53 1.35-.09 2.5-1.09 2.5-2.5.01-1.26-1.14-2.57-2.49-2.48z"/></g><g fill="#be1e2d"><path d="M212.24 39.42c-1.69 3.77 3.66 8.67 4.82 12.63.61 2.08 2.54 5.24 3.33 7.26.92 2.36 3.13 5.76 4.08 8.11 1.15 2.85 1.16 5.86 2.29 8.71 1.24 3.13 1 6.79 2.72 9.68 1.76 2.97-.54 8.28 2.65 9.6 1.51.63 8.73-2.56 10.24-1.93 3.23 1.34 6.58 2.7 10.08 2.63s7.21-1.97 8.29-5.3c.84-2.59-.06-5.42-1.25-7.87s-2.7-4.81-3.17-7.49c-.27-1.5-.2-3.05-.5-4.54-.33-1.67-1.11-3.21-1.96-4.68-6.92-12.02-19.23-20.8-32.85-23.43l-8.77-3.38z"/><path d="M209.83 38.76c-1.14 2.82.26 5.88 1.68 8.32l2.25 3.71c.65 1.16.91 2.15 1.44 3.4l2.14 4.45 1.73 3.79c1.52 2.99 3.22 5.61 3.92 8.91.75 3.57 1.89 7 2.58 10.59.33 1.73.8 3.42 1.65 4.98.24.43.33.62.44 1.28.04.24.08 1.05.09 1.56.05 2.72 0 5.85 2.56 7.53 2 1.31 4.41.52 6.52-.09l3.34-.95c.46-.12.92-.22 1.39-.31.3-.06-.15.02-.17.02.11-.01.23-.01.34-.03.51-.06 0 .03-.07-.03.58.46 1.69.69 2.39.96.93.36 1.87.69 2.82.96 1.85.53 3.83.88 5.76.81 3.22-.12 6.63-1.4 8.74-3.93 2.53-3.03 2.66-7 1.32-10.6-1.24-3.34-3.69-6.36-4.03-9.98-.18-1.93-.25-3.84-.96-5.67-.65-1.67-1.51-3.24-2.45-4.76-3.52-5.68-8.17-10.55-13.56-14.49-5.24-3.83-11.28-6.67-17.58-8.24-1.66-.41-3.11-.8-4.7-1.41l-5.42-2.09-1.08-.42c-1.26-.51-2.75.52-3.08 1.73-.39 1.41.48 2.59 1.75 3.08l8.19 3.16c1.84.71 3.87.94 5.76 1.54 2.83.89 5.55 2.06 8.16 3.49a47.76 47.76 0 0 1 13.6 11.13c1.93 2.29 3.66 4.81 5.04 7.47 1.58 3.03 1.01 6.41 2.15 9.56 1.59 4.4 7.71 12.01.78 14.86-3.01 1.24-6.33.29-9.23-.78-1.28-.47-2.61-1.29-4-1.35-.98-.04-1.99.19-2.94.43-2.02.5-3.99 1.21-6.04 1.63-.69.14.5-.12-.11.02-.03.01-.46 0-.46 0-.02.05 1.17.16.45.03.12.02.15.18.22.24-.07-.06-.31-.68-.16-.26-.08-.24-.14-.5-.18-.75.07.45-.02-.46-.02-.43a22.94 22.94 0 0 1-.03-1.18c-.02-1.22-.04-2.44-.25-3.65-.24-1.35-1-2.4-1.44-3.66-.54-1.53-.74-3.16-1.05-4.74-.33-1.68-.97-3.21-1.41-4.85-.5-1.88-.72-3.83-1.28-5.69-.5-1.66-1.28-3.21-2.1-4.74-1.56-2.89-2.85-5.78-4.33-8.7-1.31-2.6-2.16-5.33-3.7-7.82-.78-1.27-1.63-2.52-2.26-3.88-.56-1.23-.69-1.84-.29-2.83.51-1.25-.55-2.75-1.75-3.08-1.42-.39-2.56.49-3.07 1.75zm-20.36 2.57c-15.57 1.06-30.2 11.17-36.7 25.36-1 2.17-1.81 4.43-2.47 6.73-1.37 4.83-2 10.05-.44 14.82s-1.9 9.89 3.1 10.28c3.44.27 18.04-.84 20.65-3.1s.91-6.58 2.56-9.61c.84-1.54.34-3.02.78-4.72l1.95-7.68c.85-3.58-.03-4.81 1.91-7.94 1.82-2.94 3.26-8.24 4.54-11.45 1.53-3.85 11.18-8.82 9.66-12.68h-5.54z"/><path d="M189.47 38.83c-12.67.92-24.79 7.21-32.83 17.07-4.39 5.38-7.51 11.65-9.16 18.41-.94 3.85-1.31 7.8-.71 11.74.23 1.53.91 3.01 1 4.53.09 1.35-.09 2.69-.15 4.04-.13 2.76.83 5.38 3.73 6.17 1.76.48 3.79.29 5.59.2 4.77-.24 9.72-.65 14.34-1.9 2.12-.57 4.1-1.41 5.28-3.38.81-1.35 1.03-2.93 1.15-4.47.1-1.27.01-2.64.47-3.85.25-.68.64-1.33.81-2.06.21-.92.18-1.86.25-2.8.12-1.48.68-2.98 1.05-4.42.38-1.48.79-2.96 1.11-4.45.31-1.45.34-2.92.54-4.39.02-.11 0-.1.09-.44.08-.29.15-.59.26-.87.25-.63.65-1.19.98-1.78.78-1.39 1.37-2.9 1.94-4.39.59-1.56 1.12-3.15 1.66-4.73.44-1.28.58-1.93 1.22-2.86.24-.36-.11.1.19-.24l.51-.57c.41-.44.84-.85 1.28-1.26.91-.85 1.85-1.65 2.77-2.49 1.77-1.6 3.72-3.4 4.5-5.73.35-1.03.41-2.21.05-3.25-.37-1.05-1.26-1.84-2.41-1.84l-5.51.01c-3.22 0-3.22 5 0 5h5.54l-2.41-1.84c.13.37.31.32.07.05-.03-.04.12.92.03.07.01.09-.24.72-.01.16-.08.2-.2.39-.31.58-.42.71-.96 1.26-1.76 2.06-1.6 1.58-3.38 2.97-4.96 4.57-1.71 1.72-2.61 3.48-3.41 5.75-.96 2.73-1.76 5.59-3.12 8.16-.65 1.22-1.39 2.36-1.79 3.7-.36 1.22-.4 2.52-.52 3.78-.26 2.73-1.22 5.48-1.9 8.13-.39 1.52-.56 2.96-.7 4.51-.11 1.35-.92 2.5-1.15 3.85s-.22 2.7-.35 4.05c-.05.49-.11 1.05-.32 1.54-.11.27-.9.87-.24.47a8.51 8.51 0 0 1-.78.43c.65-.31-.28.09-.46.15-.94.31-1.91.53-2.88.73-2.27.46-4.09.69-6.37.91-2.04.2-4.08.35-6.13.41a35.03 35.03 0 0 1-2.05.01c-.31-.01-.52-.02-.79-.09-.86-.21.42.07-.3-.14.14.06.25.16.32.3-.13-.25-.13-.24 0 .03-.01.01-.1-.47-.1-.43-.01.57.01-.25.01-.3.01-.56.03-1.11.07-1.67.09-1.28.18-2.56.03-3.84-.17-1.56-.72-2.99-1.01-4.53-.32-1.71-.32-3.48-.18-5.21.5-6.34 3.11-12.74 6.63-17.99 6.94-10.36 18.84-17.44 31.31-18.35 1.35-.1 2.5-1.08 2.5-2.5-.01-1.29-1.16-2.61-2.51-2.51z"/></g><g stroke="#000" fill="none" class="Q T"><path d="M204.17 95.55c21.45 0 40.71 1.18 53.96 4.77 3.13-5.91 2.87-10.82 2.87-17.68 0-26.7-24.53-44.05-56.94-44.05-26.05 0-47.28 9.04-54.24 33.97-2.58 9.25-2.45 21.8.65 27.69 13.24-3.53 32.39-4.7 53.7-4.7z"/><path d="M228.51 96.26c.25-6.86-.19-18.02-4.69-30.8-4.42-12.54-15.91-25.3-19.76-26.87h-1.14c-5.99 4.4-17.69 14.33-22.11 26.87-4.5 12.77-4.94 23.94-4.69 30.8" class="S"/></g></svg>