<svg xmlns="http://www.w3.org/2000/svg" viewBox="0 0 404.9 356.13" xmlns:v="https://vecta.io/nano"><style><![CDATA[.N{stroke-miterlimit:10}.O{stroke-width:7}.P{stroke-linejoin:round}.Q{stroke-width:6}.R{stroke-linecap:round}]]></style><g stroke-width="16"><ellipse cx="202.45" cy="143.15" rx="155.19" ry="130.63" fill="#b5a081" stroke="#000"/><ellipse cx="202.45" cy="211.81" rx="53.64" ry="40.31" fill="#726658" stroke="#726658"/></g><g stroke="#000"><path d="M228.94 305.11a272.38 272.38 0 0 0 46.19-11.66c12.48-4.34 25.63-11.48 32.69-16.48-.42-3.04-.81-4.25-2.32-8.24-2.71-7.14-6.57-12.28-9.47-15.52l-75.82 22.64c2.14 3.87 4.5 8.99 6.26 15.26a72.46 72.46 0 0 1 2.47 14zm-52.98 0a272.38 272.38 0 0 1-46.19-11.66c-12.48-4.34-25.63-11.48-32.69-16.48.42-3.04.81-4.25 2.32-8.24 2.71-7.14 6.57-12.28 9.47-15.52l75.82 22.64c-2.14 3.87-4.5 8.99-6.26 15.26a72.46 72.46 0 0 0-2.47 14z" fill="#fff" class="N P Q"/><g fill="#be1e2d" class="N P Q"><path d="M214.16 299.26h-23.49l-3.44-20.96h30.49z"/><path d="M221.76 328.07l-7.6-28.81h-23.49l-7.48 28.81h0l19.29 15.61 19.28-15.61z"/></g><g stroke-width="16"><ellipse cx="202.45" cy="143.08" rx="155.19" ry="130.63" fill="none"/><path d="M52.59 108.03l-22.72 7.77 14.41-75.36 82.24-18.61-38.6 58.8a68.98 68.98 0 0 1-35.33 27.4zm299.72 0l22.72 7.77-14.41-75.36-82.24-18.61 38.61 58.81a68.95 68.95 0 0 0 35.32 27.39z" fill="#282829" class="N P"/></g><g fill="none" class="O R N"><path d="M202.45 205.28v12.65m-37 2.68c3.22 8.53 11.74 13.78 20.43 12.81 7.82-.88 16.57-7.49 16.57-15.63"/><path d="M202.45 205.28v12.65m37 2.68c-3.22 8.53-11.74 13.78-20.43 12.81-7.82-.88-16.57-7.49-16.57-15.63"/></g><ellipse cx="202.45" cy="198.52" rx="11" ry="6.76" class="O"/><path d="M204.36 223.73l-1.67-.1a15.72 15.72 0 0 0-1.54.08c-2.32 4.22-6.86 7.5-11.57 8.96-.21.81-.33 1.66-.33 2.53 0 6.39 6.02 11.56 13.44 11.56s13.44-5.18 13.44-11.56c0-.88-.13-1.74-.34-2.57-4.66-1.48-9.13-4.73-11.43-8.9z" fill="#c96b77" class="N O"/><ellipse cx="157.62" cy="138.7" rx="14.46" ry="18.32" class="O"/><circle cx="162.28" cy="129.16" r="4.66" fill="#ebf6f6" stroke-width=".25"/><ellipse cx="247.28" cy="138.7" rx="14.46" ry="18.32" class="O"/><circle cx="251.95" cy="129.16" r="4.66" fill="#ebf6f6" stroke-width=".25"/><g stroke-width="9" fill="#f6b2d0"><ellipse transform="matrix(.8861 -.4635 .4635 .8861 -18.2515 123.7111)" cx="242.59" cy="98.99" rx="10.35" ry="2.98"/><ellipse transform="matrix(.4635 -.8861 .8861 .4635 -.6351 196.9348)" cx="162.31" cy="98.99" rx="2.98" ry="10.35"/></g><path d="M159.59 198.71c1-2.25 3.34-6.64 8.51-10.69 5.29-4.15 10.85-5.83 13.61-6.5m63.6 17.19c-1-2.25-3.34-6.64-8.51-10.69-5.29-4.15-10.85-5.83-13.61-6.5" fill="none" stroke-width="4" class="N R"/></g></svg>