<svg xmlns="http://www.w3.org/2000/svg" viewBox="0 0 404.9 127.35" xmlns:v="https://vecta.io/nano"><path d="M3.77 5.17h17.5v5.94H15.5v25.72H9.39V11.11H3.77V5.17zm21.01-.79h5.83v11.41c1.15-.99 2.3-1.73 3.47-2.23 1.16-.49 2.34-.74 3.53-.74 2.32 0 4.28.8 5.88 2.41 1.36 1.39 2.05 3.44 2.05 6.14v15.48h-5.79V26.57c0-2.71-.13-4.55-.39-5.51s-.7-1.68-1.32-2.15-1.4-.71-2.31-.71c-1.19 0-2.21.4-3.07 1.18-.85.79-1.45 1.87-1.78 3.23-.17.7-.26 2.31-.26 4.82v9.41h-5.83V4.38zm49.9 22.45H55.8c.27 1.66 1 2.99 2.18 3.97s2.69 1.47 4.53 1.47c2.2 0 4.08-.77 5.66-2.3l4.95 2.32c-1.23 1.75-2.71 3.05-4.43 3.89s-3.77 1.26-6.13 1.26c-3.67 0-6.67-1.16-8.98-3.48s-3.47-5.22-3.47-8.71c0-3.57 1.15-6.54 3.46-8.9 2.3-2.36 5.19-3.54 8.66-3.54 3.69 0 6.69 1.18 9 3.54s3.47 5.48 3.47 9.35l-.02 1.13zM68.8 22.2c-.39-1.31-1.15-2.37-2.3-3.19-1.14-.82-2.47-1.23-3.98-1.23-1.64 0-3.08.46-4.31 1.38-.78.57-1.5 1.59-2.16 3.03H68.8zM3.77 105.13v-56.8h8.93c5.18 0 8.97.33 11.36 1 3.4.9 6.11 2.57 8.12 5.02s3.01 5.33 3.01 8.65c0 2.16-.46 4.13-1.37 5.89s-2.4 3.42-4.46 4.96c3.45 1.62 5.97 3.65 7.57 6.08s2.39 5.31 2.39 8.63c0 3.19-.82 6.1-2.47 8.73s-3.77 4.59-6.38 5.89c-2.6 1.3-6.2 1.95-10.78 1.95H3.77zm10.81-46.49v11.97h2.36c2.63 0 4.59-.55 5.87-1.66s1.92-2.61 1.92-4.52c0-1.78-.61-3.19-1.82-4.23s-3.06-1.56-5.54-1.56h-2.79zm0 21.62v14.55h2.71c4.49 0 7.52-.57 9.08-1.7s2.34-2.78 2.34-4.94c0-2.45-.92-4.38-2.75-5.79s-4.88-2.12-9.14-2.12h-2.24zm64.9-17.14h10.54v42H79.48v-4.44c-2.06 1.96-4.12 3.37-6.19 4.23s-4.31 1.29-6.73 1.29c-5.42 0-10.12-2.1-14.07-6.31-3.96-4.21-5.94-9.44-5.94-15.69 0-6.49 1.92-11.8 5.75-15.94s8.48-6.22 13.96-6.22c2.52 0 4.88.48 7.09 1.43s4.26 2.38 6.13 4.29v-4.64zM68.4 71.77c-3.26 0-5.96 1.15-8.12 3.46-2.15 2.3-3.23 5.26-3.23 8.86 0 3.63 1.1 6.61 3.29 8.96 2.19 2.34 4.89 3.51 8.1 3.51 3.31 0 6.05-1.15 8.23-3.46 2.18-2.3 3.27-5.32 3.27-9.05 0-3.65-1.09-6.61-3.27-8.88s-4.93-3.4-8.27-3.4zm29.81-8.65h9.03v5.29c.98-2.08 2.28-3.67 3.9-4.75s3.4-1.62 5.33-1.62c1.36 0 2.79.36 4.29 1.08l-3.28 9.07c-1.24-.62-2.25-.93-3.05-.93-1.62 0-2.99 1-4.11 3.01s-1.68 5.95-1.68 11.81l.04 2.05v16.99H98.21v-42zm27.83-16.21h10.54v33.53l15.52-17.32h13.24l-18.09 20.13 20.26 21.87h-13.08l-17.84-19.36v19.36h-10.54V46.91zm49.9-1.08c1.85 0 3.43.67 4.75 2.01s1.98 2.96 1.98 4.86c0 1.88-.65 3.48-1.96 4.81s-2.87 1.99-4.7 1.99c-1.87 0-3.47-.68-4.79-2.03s-1.98-2.99-1.98-4.92c0-1.85.65-3.44 1.96-4.75 1.31-1.32 2.89-1.97 4.74-1.97zm-5.27 17.29h10.54v42h-10.54v-42zm20.12 0h10.54v4.3c2.39-2.02 4.56-3.42 6.5-4.2 1.94-.79 3.93-1.18 5.96-1.18 4.16 0 7.7 1.45 10.6 4.36 2.44 2.47 3.66 6.13 3.66 10.96v27.76h-10.42V86.73c0-5.01-.23-8.34-.67-9.99-.45-1.65-1.23-2.9-2.35-3.76s-2.5-1.29-4.14-1.29c-2.13 0-3.96.71-5.49 2.14s-2.59 3.4-3.18 5.92c-.31 1.31-.46 4.15-.46 8.52v16.85H190.8v-42zm78.48 0h10.5V99.1c0 7.1-1.43 12.33-4.29 15.67-3.84 4.53-9.61 6.79-17.33 6.79-4.12 0-7.58-.51-10.39-1.54s-5.17-2.54-7.1-4.54-3.36-4.42-4.29-7.28H248c1.03 1.18 2.36 2.08 3.98 2.68s3.54.91 5.75.91c2.83 0 5.11-.44 6.83-1.31 1.72-.88 2.94-2.01 3.65-3.4s1.06-3.78 1.06-7.18c-1.85 1.85-3.8 3.19-5.83 4s-4.34 1.22-6.91 1.22c-5.64 0-10.4-2.03-14.28-6.1-3.89-4.07-5.83-9.21-5.83-15.44 0-6.67 2.06-12.02 6.18-16.06 3.73-3.65 8.18-5.48 13.36-5.48 2.42 0 4.7.44 6.85 1.33s4.31 2.35 6.47 4.38v-4.63zm-10.92 8.76c-3.32 0-6.06 1.11-8.22 3.34s-3.24 5.03-3.24 8.4c0 3.5 1.11 6.37 3.32 8.61s4.99 3.36 8.34 3.36c3.27 0 5.96-1.09 8.09-3.28 2.12-2.19 3.19-5.06 3.19-8.61 0-3.5-1.07-6.34-3.2-8.53-2.16-2.19-4.91-3.29-8.28-3.29zm41.05-23.55h10.81v46.48h15.75v10.31H299.4V48.33zm53.36 13.71c3.96 0 7.69.99 11.18 2.97s6.21 4.67 8.17 8.07 2.93 7.06 2.93 11a22.06 22.06 0 0 1-2.95 11.12c-1.97 3.45-4.65 6.15-8.05 8.09s-7.14 2.92-11.24 2.92c-6.02 0-11.16-2.14-15.42-6.43s-6.39-9.49-6.39-15.62c0-6.56 2.41-12.03 7.22-16.41 4.21-3.8 9.06-5.71 14.55-5.71zm.17 9.92c-3.27 0-6 1.14-8.18 3.42s-3.27 5.19-3.27 8.74c0 3.66 1.08 6.62 3.23 8.88 2.15 2.27 4.88 3.4 8.18 3.4s6.04-1.14 8.24-3.44c2.19-2.29 3.29-5.24 3.29-8.84s-1.08-6.53-3.23-8.78c-2.16-2.25-4.91-3.38-8.26-3.38z"/><path d="M384.92 47.64h10.54v15.48h6.25v9.07h-6.25v32.93h-10.54V72.19h-5.4v-9.07h5.4V47.64zm-50.76 15.35l.66 9.04c.11 1.52 1.83 2.36 3.1 1.5l7.49-5.08c1.27-.86 1.13-2.76-.25-3.43L337 61.06c-1.37-.67-2.95.4-2.84 1.93zm37.47 0l-.66 9.04c-.11 1.52-1.83 2.36-3.1 1.5l-7.49-5.08c-1.27-.86-1.13-2.76.25-3.43l8.16-3.96a1.98 1.98 0 0 1 2.84 1.93z"/><ellipse transform="matrix(.866 -.5 .5 .866 -.5024 89.9343)" cx="167.57" cy="45.9" rx="2.38" ry="3.17"/><ellipse transform="matrix(.5 -.866 .866 .5 52.1881 182.2018)" cx="183.89" cy="45.9" rx="3.17" ry="2.38"/><ellipse transform="matrix(.9785 -.2062 .2062 .9785 -4.9508 36.484)" cx="172.55" cy="41.99" rx="2.38" ry="3.17"/><ellipse transform="matrix(.2062 -.9785 .9785 .2062 100.9259 208.3957)" cx="178.91" cy="41.99" rx="3.17" ry="2.38"/></svg>