<?xml version="1.0" encoding="utf-8"?>
<svg viewBox="0 0 500 500" xmlns="http://www.w3.org/2000/svg">
  <g class="W" transform="matrix(1.270251, 0, 0, 1.270251, -7.393378, 23.812765)" style="stroke: rgb(0, 0, 0);">
    <ellipse cx="204.47" cy="83.65" rx="73.28" ry="61.68" fill="#5fbf8a" class="Z" style="stroke-width: 8px;"/>
    <ellipse cx="160.55" cy="61.93" rx="6.82" ry="8.64" class="V" style="stroke: rgb(0, 0, 0); stroke-width: 2px;"/>
    <circle cx="162.75" cy="57.44" r="2.2" class="X Y" style="fill: rgb(235, 246, 246); stroke-width: 0.25px;"/>
    <ellipse cx="248.39" cy="61.93" rx="6.82" ry="8.64" class="V" style="stroke: rgb(0, 0, 0); stroke-width: 2px;"/>
    <circle cx="250.59" cy="57.44" r="2.2" class="X Y" style="fill: rgb(235, 246, 246); stroke-width: 0.25px;"/>
  </g>
  <g fill="#ddedd0" transform="matrix(1.270251, 0, 0, 1.270251, -7.393378, 23.812765)" style="">
    <path d="M203.72 103.32c.29-.6.49-1.24.56-1.94a17.08 17.08 0 0 0-.56 1.94z"/>
    <path d="M204.8 103.96c.19-.4.37-.81.49-1.23.13-.43.19-.88.24-1.33.01-.17-.03-.33-.11-.48a.96.96 0 0 0-.26-.4l-.25-.2c-.14-.09-.3-.14-.46-.15-.11-.03-.22-.03-.33 0a.93.93 0 0 0-.46.15l-.25.2a1.33 1.33 0 0 0-.32.55 15.97 15.97 0 0 0-.56 1.94c-.07.33-.05.67.13.96.15.26.45.51.75.57.32.07.68.06.96-.13.27-.17.5-.43.57-.75.15-.66.33-1.3.56-1.94l-2.46-.33-.02.21.04-.33a5.87 5.87 0 0 1-.39 1.42l.13-.3-.14.31c-.09.14-.14.3-.15.46-.04.17-.03.33.02.5.08.29.3.6.57.75.29.15.64.23.96.13.29-.11.6-.29.74-.58z"/>
    <path d="M272.38 101.53c-.37-.55-1.06-.77-1.69-.96l-12.63-3.68c-.59-.17-1.24-.34-1.8-.09-.45.2-.75.63-1.01 1.04-1.86 3.02-2.78 6.74-5.5 9.01-1.37 1.14-3.08 1.8-4.59 2.75-1.48.94-2.75 2.16-4.19 3.16-3.27 2.27-7.31 3.27-11.28 3.29-3.98.02-7.91-.9-11.66-2.22-1.97-.69-3.95-1.52-5.53-2.89-1.16-1.01-2.07-2.28-2.96-3.54l-4.47-6.29-1.34 2.21c-.99 2.04-3.12 3.59-5.15 4.81a97.32 97.32 0 0 1-7.51 4.09c-1.86.91-3.77 1.76-5.77 2.27-5.94 1.5-12.25-.14-17.86-2.6-1.31-.57-2.61-1.2-3.77-2.03-2.29-1.65-3.93-4.03-5.39-6.45-1.34-2.23-2.57-4.54-3.67-6.9a47.64 47.64 0 0 0-18.18 4.35l-.62 2.02c3.91 4.55 7.88 9.19 10.33 14.67.45 1.01.85 2.05 1.48 2.95.66.94 1.54 1.69 2.42 2.43l6.21 5.27c1.28 1.08 2.56 2.17 3.9 3.17 4.35 3.23 9.31 5.51 14.24 7.77 2.2 1.01 4.45 2.03 6.86 2.34 2.67.34 5.4-.23 8.05.23 2.8.49 5.45 2.11 8.28 1.79l3.59 1.21c.82.42 1.8.37 2.72.32l11.13-.62c3.68-.21 7.4-.42 10.97-1.37 1.95-.52 3.84-1.26 5.72-1.99l6.9-2.69c5.74-2.24 11.59-4.54 16.33-8.48 1.92-1.59 3.62-3.43 5.28-5.28 5.52-6.14 10.92-12.94 12.37-21.07.09-.67.17-1.43-.21-2z"/>
    <path d="M273.26 100.65c-.7-.83-1.7-1.12-2.71-1.42l-4.68-1.36-8.21-2.36c-2.69-.48-3.77 2.04-4.75 4.07-.99 2.04-1.86 4.27-3.49 5.89-1.84 1.83-4.52 2.68-6.57 4.28-2.14 1.66-4.16 3.21-6.77 4.06-5.39 1.76-11.12.97-16.42-.73-2.95-.95-5.71-2.08-7.73-4.52-2.09-2.54-3.88-5.38-5.79-8.06-.54-.76-1.64-.85-2.16 0l-1.29 2.11c-.91 1.56-2.07 2.69-3.57 3.7-3.58 2.4-7.61 4.6-11.64 6.16-4.04 1.57-8.26 1.66-12.46.69-2.15-.49-4.25-1.21-6.29-2.06-1.89-.79-3.8-1.67-5.34-3.06-3.5-3.17-5.74-7.96-7.72-12.17-.18-.38-.67-.64-1.08-.62-3.63.15-7.24.67-10.75 1.6-1.63.43-3.23.95-4.8 1.55-1.17.45-3.32.93-3.84 2.15-.24.57-.5 1.34-.6 1.95-.22 1.32 1.53 2.66 2.31 3.59 2.2 2.61 4.33 5.28 6.09 8.21 1.74 2.88 2.63 6.34 5.16 8.66 2.65 2.43 5.48 4.7 8.23 7.01 5.36 4.5 11.42 7.55 17.76 10.44 1.61.73 3.25 1.47 4.97 1.92 1.78.47 3.59.54 5.43.49 1.76-.05 3.51-.15 5.24.27 1.67.4 3.25 1.12 4.94 1.46.99.2 2.02.09 2.94.3.86.2 1.71.58 2.55.86 2.63.89 5.27.48 8.01.33 7.29-.41 14.69-.38 21.62-2.95 6.46-2.39 13.14-4.75 19.26-7.94 6.8-3.55 11.96-9.19 16.63-15.17 2.26-2.89 4.34-5.95 5.86-9.31.73-1.61 1.35-3.27 1.79-4.98.4-1.58.88-3.27.09-4.8-.74-1.43-2.9-.17-2.16 1.26.47.91-.3 2.77-.56 3.68a26.66 26.66 0 0 1-1.4 3.77c-1.14 2.48-2.58 4.8-4.17 7.01-1.59 2.2-3.35 4.28-5.15 6.31-1.98 2.23-3.99 4.46-6.31 6.34-4.3 3.47-9.55 5.58-14.64 7.58-5.53 2.17-11.11 4.86-17.04 5.73-2.96.44-5.97.53-8.96.7l-9.2.51c-1.68.08-3.07-.51-4.64-1.04-.42-.14-.88-.36-1.32-.45-.52-.1-1.07.01-1.6-.03-.8-.06-1.59-.28-2.35-.51-1.3-.39-2.58-.9-3.92-1.18-1.42-.3-2.85-.34-4.29-.3-1.54.04-3.1.16-4.62-.08-1.54-.24-3.03-.79-4.45-1.4-5.22-2.25-10.52-4.69-15.17-7.99-2.69-1.91-5.15-4.16-7.67-6.3-1.3-1.1-2.64-2.17-3.9-3.33-1.22-1.13-1.9-2.4-2.56-3.9-2.55-5.76-6.62-10.57-10.69-15.31l.32 1.22.62-2.02-.57.75c5.52-2.52 11.49-3.92 17.55-4.18l-1.08-.62c1.93 4.09 4.1 8.45 7.21 11.79 3.05 3.27 7.67 4.98 11.88 6.19 4.42 1.27 9.19 1.7 13.65.4 4.55-1.32 8.91-3.86 12.94-6.31 1.98-1.2 3.96-2.61 5.22-4.59.6-.94 1.14-1.92 1.72-2.87h-2.16l5.21 7.32c1.54 2.08 3.29 3.73 5.66 4.84 4.9 2.29 10.69 3.68 16.11 3.36 2.64-.16 5.24-.72 7.66-1.78 2.44-1.07 4.3-2.78 6.44-4.31 2.09-1.49 4.6-2.3 6.38-4.22 1.64-1.76 2.59-3.98 3.62-6.12.46-.95 1.09-2.98 2.3-2.84 1.58.18 3.28.95 4.8 1.4l4.91 1.43 2.34.68c.71.21 1.58.32 2.08.91 1.01 1.26 2.77-.52 1.74-1.74z"/>
  </g>
  <g fill="none" class="W" transform="matrix(1.270251, 0, 0, 1.270251, -7.393378, 23.812765)" style="stroke: rgb(0, 0, 0);">
    <path d="M134.73 101.43c6.6-2.94 12.88-4.86 20.51-5.61.56 1.69 4.58 13.16 15.81 17.25 11.42 4.15 25.59-1.04 33.42-13.29m69.74 1.65c-6.6-2.94-12.88-4.86-20.51-5.61-.56 1.69-4.58 13.16-15.81 17.25-11.42 4.15-25.59-1.04-33.42-13.29" class="U a b c" style="stroke: rgb(0, 0, 0); stroke-linecap: round; stroke-linejoin: round; stroke-miterlimit: 10; stroke-width: 3px;"/>
    <ellipse cx="204.47" cy="83.64" rx="73.28" ry="61.68" class="Z" style="stroke-width: 8px;"/>
  </g>
  <g fill="#157153" transform="matrix(1.270251, 0, 0, 1.270251, -7.393378, 23.812765)" style="">
    <ellipse cx="186.55" cy="33.56" rx="6.09" ry="3.81" opacity=".51"/>
    <ellipse cx="175.06" cy="37.36" rx="3.81" ry="2.3" opacity=".51"/>
  </g>
  <g class="W" transform="matrix(1.270251, 0, 0, 1.270251, -7.393378, 23.812765)" style="stroke: rgb(0, 0, 0);">
    <path d="M204.47 77.32c-11.31 0-15.24 2.37-20.47 7.29m20.47-7.29c11.31 0 15.24 2.37 20.47 7.29" fill="none" class="U V b" style="stroke: rgb(0, 0, 0); stroke-linecap: round; stroke-miterlimit: 10; stroke-width: 2px;"/>
    <g class="a" style="stroke-width: 3px;">
      <ellipse transform="matrix(.5569 -.8306 .8306 .5569 12.9439 199.5777)" cx="193.52" cy="87.66" rx="2.84" ry=".69"/>
      <ellipse transform="matrix(.8306 -.5569 .5569 .8306 -12.3205 134.8148)" cx="215.42" cy="87.66" rx=".69" ry="2.84"/>
    </g>
    <g class="Z U d" style="fill: rgb(155, 133, 121); stroke: rgb(0, 0, 0); stroke-miterlimit: 10; stroke-width: 8px;">
      <path d="M20.78 290.13l7.92-.23m-6.22 9.82l7.76-1.58m-2.72 10.93l7.53-2.45m143.41-16.49l-7.91-.23m6.22 9.82l-7.76-1.58m2.71 10.93l-7.53-2.45" class="b" style="stroke-linecap: round;"/>
      <path d="M146.44 225.04l21.79-36.91-38.2-34.25-12.12 58.86a86.8 86.8 0 0 0-18.29-1.94c-6.23 0-12.28.66-18.06 1.89L69.21 152.7l-38.2 34.25 22.28 37.75c-16.45 11.31-26.96 28.52-26.96 47.79 0 34.07 32.81 61.68 73.28 61.68s73.28-27.62 73.28-61.68c.01-19.08-10.28-36.13-26.45-47.45z" class="c" style="stroke-linejoin: round;"/>
    </g>
    <g fill="none" class="a b U" style="stroke: rgb(0, 0, 0); stroke-linecap: round; stroke-miterlimit: 10; stroke-width: 3px;">
      <path d="M99.62 300.04v5.97"/>
      <path d="M82.15 307.28c1.52 4.03 5.54 6.51 9.65 6.05 3.69-.42 7.83-3.54 7.83-7.38"/>
      <path d="M99.62 300.04v5.97m17.48 1.27c-1.52 4.03-5.54 6.51-9.65 6.05-3.69-.42-7.83-3.54-7.83-7.38"/>
    </g>
    <ellipse cx="99.62" cy="296.85" rx="5.2" ry="3.19" class="a" style="stroke-width: 3px;"/>
    <g stroke-width="4" class="e" style="fill: rgb(246, 178, 208);">
      <ellipse transform="matrix(.9309 -.3653 .3653 .9309 -88.4807 42.3757)" cx="67.75" cy="255.02" rx="4.49" ry="1.1"/>
      <ellipse transform="matrix(.3653 -.9309 .9309 .3653 -153.9322 284.2661)" cx="131.5" cy="255.02" rx="1.1" ry="4.49"/>
    </g>
    <ellipse cx="73.77" cy="275.9" rx="6.82" ry="8.64" class="V" style="stroke: rgb(0, 0, 0); stroke-width: 2px;"/>
    <circle cx="75.97" cy="271.41" r="2.2" class="X Y" style="fill: rgb(235, 246, 246); stroke-width: 0.25px;"/>
    <ellipse cx="125.47" cy="275.9" rx="6.82" ry="8.64" class="V" style="stroke: rgb(0, 0, 0); stroke-width: 2px;"/>
    <circle cx="127.67" cy="271.41" r="2.2" class="X Y" style="fill: rgb(235, 246, 246); stroke-width: 0.25px;"/>
  </g>
  <g class="e" transform="matrix(1.270251, 0, 0, 1.270251, -7.393378, 23.812765)" style="fill: rgb(246, 178, 208);">
    <path d="M48.52 194.73c-.89-3.16 4.18-7.22 5.68-10.15s3.69-5.42 5.86-7.88l.27-1.11c0 1.9 1.49 4.19 1.62 6.09.42 6.27 2.96 11.99 4.71 18.03 1.71 5.89 3.18 11.08 6.22 16.41.42.74-8.61-6.23-5.13 1.53l-3.41.24c-.47.09-.21 5.08-.52 4.71-1.88-2.18-4.02-8.84-5.8-11.7l-9.5-16.17z"/>
    <path d="M49.12 194.57c-.39-1.65.85-3.3 1.78-4.55l3.36-4.33c1.3-1.98 2.37-3.98 3.89-5.83.73-.89 1.75-1.74 2.34-2.72.25-.41.32-.91.43-1.38l-1.23-.17c.1 2.22 1.41 4.13 1.63 6.32.25 2.48.68 4.89 1.35 7.3 1.39 5.02 3.11 9.98 4.63 14.97.71 2.34 1.49 4.67 2.43 6.93.44 1.06.91 2.11 1.42 3.14.25.5.55 1.41.95 1.79.04.07.08.13.11.2.21.51.47.29.78-.67.03.05.05.07-.02-.01-.4-.47-1.46-.85-2-1.13-.78-.42-1.62-.85-2.49-1.03-3.08-.61-1.98 2.99-1.29 4.57l.54-.94-2.52.18c-.54.04-1.17-.05-1.51.45-.37.55-.28 1.56-.3 2.18l-.04 1.6c-.01.16-.05.4-.02.56.07.43-.25.3.19.09h.63c-.38-.25-.73-1.15-.95-1.55-.37-.69-.71-1.4-1.03-2.11l-2.07-4.73c-.66-1.48-1.43-2.87-2.24-4.26l-6.76-11.5-2.06-3.51c-.41-.69-1.49-.06-1.08.63l7.95 13.52c1.11 1.89 2.22 3.74 3.12 5.75.96 2.15 1.81 4.36 2.9 6.45.29.56 1.62 3.48 2.5 2.11.28-.44.18-1.29.19-1.78.02-.76.24-1.78.12-2.52-.01-.03.08-.28.05-.3.12.12-.67.02-.27.22.22.11.93-.06 1.15-.08l2.07-.14c.51-.04.73-.5.54-.94s-1.17-2.38-.54-2.75c.47-.28 1.77.48 2.16.68.6.3 2.84 2.12 3.47 1.27.34-.45-.08-.94-.3-1.34-.61-1.1-1.17-2.23-1.68-3.38-.98-2.18-1.77-4.45-2.49-6.72l-4.44-14.26c-.83-2.69-1.55-5.43-1.82-8.24-.12-1.19-.28-2.25-.68-3.39-.42-1.18-.95-2.35-1.01-3.62-.03-.68-1.05-.88-1.23-.17-.21.84-.42 1.17-1 1.84a60.04 60.04 0 0 0-2.39 2.89c-1.41 1.82-2.36 3.91-3.74 5.74-1.85 2.45-5.48 5.56-4.68 9 .18.78 1.38.45 1.2-.33z"/>
  </g>
  <path d="M 67.36 248.025 L 73.064 265.783 L 82.032 293.703 L 84.128 300.232 L 86.465 298.441 L 76.126 290.908 C 74.741 289.905 73.292 291.797 73.953 293.08 L 78.869 302.671 L 80.66 300.333 L 74.829 298.746 C 74.055 298.53 73.038 299.012 72.873 299.851 C 72.479 301.998 73.28 303.954 73.268 306.088 L 74.855 304.501 L 69.456 303.966 C 67.425 303.763 67.437 306.939 69.456 307.142 L 74.855 307.676 C 75.719 307.764 76.443 306.875 76.443 306.088 C 76.455 304.322 75.604 302.455 75.935 300.702 L 73.979 301.807 L 79.809 303.395 C 81.206 303.777 82.223 302.265 81.6 301.057 L 76.685 291.467 L 74.512 293.639 L 84.852 301.173 C 85.982 301.998 87.583 300.638 87.189 299.381 L 81.55 281.826 L 72.53 253.74 L 70.422 247.161 C 69.799 245.243 66.738 246.068 67.36 248.025 L 67.36 248.025 Z" style=""/>
  <g class="e" transform="matrix(1.270251, 0, 0, 1.270251, -7.393378, 23.812765)" style="fill: rgb(246, 178, 208);">
    <path d="M150.73 194.73c.89-3.16-4.18-7.22-5.68-10.15-1.5-2.92-3.69-5.42-5.86-7.88l-.27-1.11c0 1.9-1.49 4.19-1.62 6.09-.42 6.27-2.96 11.99-4.71 18.03-1.71 5.89-3.18 11.08-6.22 16.41-.42.74 8.61-6.23 5.13 1.53l3.41.24c.47.09.21 5.08.52 4.71 1.88-2.18 4.02-8.84 5.8-11.7l9.5-16.17z"/>
    <path d="M151.33 194.9c.8-3.45-2.83-6.55-4.68-9-1.33-1.77-2.25-3.8-3.6-5.57-.76-.99-1.56-1.95-2.38-2.89-.66-.76-.91-1.07-1.15-2.01-.17-.7-1.2-.52-1.23.17-.09 2.07-1.37 3.87-1.6 5.92-.29 2.59-.7 5.07-1.4 7.58-1.33 4.74-2.96 9.4-4.38 14.12-.68 2.28-1.41 4.55-2.29 6.76a47.89 47.89 0 0 1-1.52 3.44 36.54 36.54 0 0 1-.72 1.39c-.18.33-.57.78-.63 1.17-.28 1.83 2.54-.15 2.99-.4.63-.34 1.79-1.12 2.55-1 .99.16-.11 2.25-.33 2.76-.19.44.03.91.54.94l1.58.11 1.15.08c.11.01.38.07.49.03.04 0 .09.01.13.01.19.02.06-.06-.4-.23-.07.04.14 1.59.14 1.78.02.73-.02 1.5.08 2.22.06.38.11.82.56.94.66.17 1.12-.79 1.4-1.23 1.19-1.9 2.01-4.05 2.89-6.11 2.23-5.17 5.33-9.92 8.18-14.77l3.56-6.07c.41-.7-.67-1.32-1.08-.63l-5.26 8.94c-1.77 3.02-3.77 6-5.28 9.17-.8 1.68-1.5 3.42-2.25 5.12-.37.84-.75 1.68-1.18 2.5-.26.49-.67 1.62-1.15 1.94h.63c.43.21.12.34.19-.09.03-.17-.02-.39-.02-.56l-.04-1.6c-.02-.61.07-1.64-.3-2.18-.34-.49-.97-.41-1.51-.45l-2.52-.18.54.94c.56-1.28 1.89-4.63-.69-4.64-1.68-.01-3.33 1.25-4.73 2.03-.06.04-.29.12-.32.18-.04.07.33.85.61.9.28.04 1.67-3.22 1.84-3.58 1.01-2.21 1.85-4.49 2.6-6.8l4.64-14.88c.82-2.65 1.5-5.35 1.82-8.12.17-1.45.39-2.69.89-4.06.41-1.11.8-2.2.85-3.4l-1.23.17c.11.43.16.94.38 1.32.56.94 1.55 1.77 2.25 2.61 1.58 1.9 2.69 3.96 4.03 6 .97 1.48 2.2 2.78 3.27 4.19.97 1.28 2.28 2.98 1.88 4.68-.18.79 1.03 1.12 1.21.34z"/>
  </g>
  <path d="M 167.875 247.186 L 162.172 264.944 L 153.204 292.864 L 151.108 299.394 C 150.715 300.638 152.315 302.01 153.445 301.185 L 163.785 293.653 L 161.613 291.48 L 156.698 301.071 C 156.075 302.277 157.104 303.789 158.489 303.407 L 164.319 301.82 L 162.362 300.715 C 162.681 302.468 161.842 304.335 161.855 306.101 C 161.855 306.901 162.579 307.778 163.443 307.688 L 168.841 307.155 C 170.861 306.952 170.874 303.777 168.841 303.979 L 163.443 304.513 L 165.031 306.101 C 165.017 303.966 165.83 302.01 165.424 299.864 C 165.271 299.012 164.242 298.542 163.468 298.758 L 157.637 300.346 L 159.428 302.683 L 164.344 293.094 C 165.005 291.811 163.557 289.918 162.172 290.921 L 151.833 298.453 L 154.169 300.244 L 159.81 282.69 L 168.828 254.604 L 170.937 248.025 C 171.571 246.082 168.498 245.243 167.875 247.186 L 167.875 247.186 Z" style=""/>
  <ellipse style="fill: rgb(255, 255, 255);" cx="372.737" cy="346.161" rx="91.314" ry="78.374"/>
  <g class="W Z" transform="matrix(1.270251, 0, 0, 1.270251, -7.393378, 23.812765)" style="stroke: rgb(0, 0, 0); stroke-width: 8px;">
    <path d="M39.62 202.37l-18.46 13.74 3.81-41.07 44.25-22.33-9.3 23.27c-4.21 10.5-11.23 19.64-20.3 26.39zm120.01 1.17l18.46 13.74-3.81-41.07-44.25-22.33 9.3 23.27a61.27 61.27 0 0 0 20.3 26.39z" class="U c d" style="fill: rgb(155, 133, 121); stroke: rgb(0, 0, 0); stroke-linejoin: round; stroke-miterlimit: 10; stroke-width: 8px;"/>
    <circle cx="299.7" cy="269.21" r="2.39"/>
  </g>
  <g class="f" transform="matrix(1.270251, 0, 0, 1.270251, -7.393378, 23.812765)" style="fill: rgb(251, 176, 64);">
    <path d="M306.59 171.03c-9.1.07-17.73 6.89-19.89 15.73-.33 1.33-.49 2.83.26 3.98 1.45 2.23 4.83 1.44 7.37.66 10.41-3.19 21.84-1.58 31.92 2.53s19.01 10.56 27.58 17.27c1.4 1.1 3.8 2.04 4.63.46.25-.47.23-1.03.18-1.55-.53-5.03-4.29-9.11-8.23-12.28-3.94-3.18-8.36-5.96-11.19-10.16-1.65-2.45-3.27-5.69-6.23-5.78-1.52-.05-2.9.83-4.27 1.49-4.09 1.97-8.98 2.17-13.22.55-4.23-1.62-5.2-4.9-6.93-9.1l-1.98-3.8z"/>
    <path d="M306.59 168.53c-6.23.11-12.24 2.85-16.54 7.33-2.19 2.28-3.87 4.94-5.02 7.88-1.17 3-1.97 7.01.76 9.45 2.46 2.19 6.01 1.57 8.89.72 3.33-.98 6.68-1.58 10.16-1.67 7.33-.19 14.65 1.51 21.38 4.37 6.86 2.92 13.19 6.97 19.2 11.34l3.95 2.95c1.38 1.05 2.71 2.34 4.24 3.15 1.35.71 2.97 1.22 4.5.81 1.97-.52 3.08-2.37 3.04-4.34-.13-7.13-6.27-12.39-11.44-16.36-2.65-2.03-5.37-4.04-7.51-6.62-1.87-2.25-2.99-5.03-5.4-6.81-1.55-1.14-3.42-1.54-5.31-1.19-1.94.36-3.57 1.61-5.42 2.22-3.33 1.09-7.48 1.16-10.62-.59-2.43-1.36-3.31-4.14-4.34-6.66-.67-1.63-1.55-3.17-2.37-4.74-1.49-2.86-5.8-.33-4.32 2.52l1.9 3.66c.05.1.18.36-.04-.11.15.33.27.68.41 1.02l.78 1.89c.5 1.17 1.04 2.32 1.78 3.36 3.77 5.3 11.39 6.34 17.32 4.72 1.58-.43 3.05-1.13 4.51-1.86 1.1-.55 1.99-.85 2.93-.12.76.59 1.37 1.55 1.91 2.37.87 1.32 1.72 2.63 2.73 3.85 3.93 4.71 9.59 7.51 13.73 12.01 1.8 1.96 3.36 4.35 3.73 7.04.18 1.32.53-.61.89-.09-.08-.12-1-.36-1.16-.46-1.41-.83-2.66-2-3.96-2.99-5.45-4.16-11.09-8.12-17.14-11.37-12.03-6.46-26.29-10.19-39.82-6.58-1.39.37-2.79.93-4.23 1.06-.92.08-1.63.15-1.79-.67-.24-1.27.52-2.97.99-4.1.53-1.26 1.24-2.46 2.03-3.57 3.32-4.66 8.92-7.71 14.64-7.81 3.25-.07 3.26-5.07.03-5.01zm65.58 104.91c2.78.39 5.08 2.5 6.44 4.96 1.35 2.46 1.91 5.27 2.45 8.03l.79 4.03c.21 1.07.32 2.39-.56 3.02-.6.43-1.41.34-2.14.23l-9.9-1.49c-.76-.11-1.52-.23-2.23-.53-2.86-1.22-3.7-5.12-2.57-8.02 1.12-2.9 3.62-5 6.02-6.98l1.7-3.25z"/>
    <path d="M371.5 275.85c1.71.28 2.92 1.06 4.05 2.44 1.11 1.35 1.8 3.25 2.26 5.01.55 2.09.92 4.23 1.33 6.35l.31 1.6c.08.52-.12-.59.03.32.01.07.11.44.04.16.08.29-.55.53.2-.19l.34-.22c.01-.01.03-.01.04-.02-.01.07-1.57-.2-1.68-.21l-7.33-1.11c-.97-.15-2.02-.22-2.96-.54-.05-.02-.65-.34-.43-.18-.13-.1-.25-.22-.36-.33-.47-.46.14.29-.23-.27-.05-.07-.45-.87-.31-.53a5.36 5.36 0 0 1-.33-1.25c.05.36-.01-.49-.01-.65l.02-.53c.03-.52-.07.08.07-.38.49-1.66 1.41-2.96 2.64-4.19 1.21-1.21 2.89-2.17 3.7-3.69l1.44-2.74c.63-1.19.3-2.72-.9-3.42-1.13-.66-2.79-.3-3.42.9l-1.51 2.86c-.05.09-.09.19-.15.28-.16.26.17-.21.09-.2-.37.07-.96.8-1.24 1.04-.9.78-1.77 1.59-2.53 2.49-1.67 1.97-2.9 4.18-3.16 6.78-.21 2.12.3 4.42 1.58 6.15 1.68 2.28 4.01 2.82 6.68 3.22l8.71 1.31c1.62.24 3.27.31 4.57-.87 1.03-.94 1.48-2.3 1.43-3.67-.04-1.33-.41-2.68-.66-3.98l-.78-3.9c-1.18-5.43-4.08-11.66-10.22-12.66-1.33-.22-2.69.35-3.08 1.75-.31 1.19.42 2.85 1.76 3.07zm-143.54-2.12a179.15 179.15 0 0 0 6.07 14.95c.3.65.58 1.48.11 2.02-.29.33-.76.41-1.19.46a35.3 35.3 0 0 1-12.87-.78c-1.43-.36-3.12-1.15-3.15-2.62-.01-.68.35-1.3.75-1.85 2.82-3.92 5.13-9.04 9.54-11.01l.74-1.17z"/>
    <path d="M225.55 274.39a200.66 200.66 0 0 0 4.54 11.56l1.22 2.77.56 1.22c-.14-.36-.01.04.01.1.09.45.11.32.05-.4l.86-.98c.01.02-2.14.21-2.51.23l-2.99.02a31.77 31.77 0 0 1-5.59-.7l-1.3-.32-.55-.18c.11.04.37.21-.04-.02l-.4-.22c-.56-.31.01-.02-.02-.01-.41.2.06-.39-.01.03-.14-.25-.14-.24.01.04l.03.24c-.01-.02-.03.18-.06.16-.03-.03.34-.56.38-.62l.65-.93 1.25-1.91 2.58-3.82c-.21.28.04-.06.07-.09l.48-.58.84-.91s.59-.56.9-.83c.57-.5-.2.13.16-.13l.5-.34c.85-.54 1.66-.83 2.25-1.71l.68-1.07c.72-1.14.24-2.76-.9-3.42-1.2-.7-2.7-.25-3.42.9l-.75 1.18.9-.9c-3.29 1.52-5.56 4.51-7.5 7.46l-2.79 4.25c-1.39 1.98-1.76 4.51.06 6.38 1.36 1.4 3.3 1.91 5.15 2.29 2.22.45 4.5.73 6.77.79a33.38 33.38 0 0 0 3.32-.07c1.12-.08 2.36-.1 3.42-.45 1.45-.49 2.45-1.78 2.5-3.32.04-1.19-.5-2.23-.98-3.28-2.05-4.5-3.88-9.09-5.54-13.74-.45-1.27-1.71-2.12-3.08-1.75-1.19.35-2.16 1.8-1.71 3.08z"/>
  </g>
  <circle cx="454.673" cy="416.815" r="6.465" fill="#95d8eb" style=""/>
  <g class="f" transform="matrix(1.270251, 0, 0, 1.270251, -7.393378, 23.812765)" style="fill: rgb(251, 176, 64);">
    <path d="M332.97 219.72a20.93 20.93 0 0 1-8.64 7.45c-.81.37-1.68.72-2.22 1.43-.53.7-.65 1.62-.74 2.49-.64 5.86-1.23 12.03 1.14 17.42.83 1.88 2 3.62 2.53 5.6.9 3.34-.02 7.35 2.22 9.98.92 1.08 2.23 1.73 3.5 2.35 5.43 2.65 12.15 5.24 17.15 1.85 1.93-1.31 3.25-3.33 4.33-5.4 3.61-6.86 5.17-14.79 4.43-22.5-.11-1.17-.29-2.37-.88-3.38-1.1-1.88-3.35-2.68-5.16-3.9-5.74-3.88-7.85-12.71-14.61-14.26l-3.05.87z"/>
    <path d="M330.81 218.46c-1.31 1.96-3 3.69-4.97 4.99-2.13 1.42-5.07 2.05-6.26 4.53-.6 1.24-.67 2.63-.81 3.99l-.39 4.45c-.17 2.87-.09 5.75.45 8.59.53 2.79 1.75 5.21 3 7.73 1.1 2.22 1.09 4.42 1.34 6.82.26 2.55.91 5.05 2.87 6.86 1.93 1.77 4.62 2.79 7 3.79 4.77 1.99 10.29 3.29 15.15.84 4.85-2.45 7.34-8.46 8.97-13.33 1.76-5.25 2.5-10.93 2.1-16.45-.2-2.76-.66-5.45-2.84-7.37-1.66-1.47-3.87-2.26-5.47-3.71-3.3-2.99-5.16-7.2-8.33-10.31-1.63-1.59-3.92-3.24-6.25-3.48-1.31-.14-2.8.56-4.05.91-3.09.88-1.78 5.71 1.33 4.82l3.06-.87h-1.33c2.84.7 4.73 3.06 6.47 5.49 2.1 2.94 4.1 5.97 7.04 8.15 1.41 1.05 3.38 1.65 4.52 3.01 1.13 1.35.93 3.89.96 5.54.08 4.55-.67 9.05-2.16 13.34-.74 2.11-1.66 4.17-2.8 6.1-.99 1.67-2.26 3.27-4.12 4-3.6 1.42-7.93-.2-11.24-1.68-1.6-.71-3.89-1.45-4.99-2.89-.99-1.3-.91-3.31-1.02-4.85-.17-2.37-.57-4.51-1.58-6.67-.97-2.1-2.08-3.99-2.6-6.27-.58-2.51-.6-5.11-.47-7.67a90.2 90.2 0 0 1 .32-4.01c.07-.71-.03-2.16.45-2.77.21-.28.8-.45 1.12-.6.6-.28 1.19-.56 1.77-.88 1.02-.57 1.98-1.24 2.91-1.96 2.05-1.59 3.77-3.5 5.22-5.66 1.74-2.68-2.59-5.19-4.37-2.52z"/>
  </g>
  <g class="W" transform="matrix(1.270251, 0, 0, 1.270251, -7.393378, 23.812765)" style="stroke: rgb(0, 0, 0);">
    <ellipse cx="254.89" cy="254.11" rx="6.82" ry="8.64" class="V" style="stroke: rgb(0, 0, 0); stroke-width: 2px;"/>
    <circle cx="257.09" cy="248.75" r="2.2" class="X Y" style="fill: rgb(235, 246, 246); stroke-width: 0.25px;"/>
    <ellipse cx="343.61" cy="254.11" rx="6.82" ry="8.64" class="V" style="stroke: rgb(0, 0, 0); stroke-width: 2px;"/>
    <circle cx="345.8" cy="249.62" r="2.2" class="X Y" style="fill: rgb(235, 246, 246); stroke-width: 0.25px;"/>
  </g>
  <g class="f" transform="matrix(1.270251, 0, 0, 1.270251, -7.393378, 23.812765)" style="fill: rgb(251, 176, 64);">
    <path d="M278.81 313.98c1.39 2.51 5.17-.37 7.63-1.86 2.45-1.49 4.07-4 6.1-6.03 3.28-3.26 7.77-5.26 12.38-5.53 2.4-.14 4.82.18 7.2-.17 6.68-.97 11.43-6.71 16.22-11.46s11.71-9.08 17.92-6.44c1.86.79 3.45 2.17 4.5 3.89 2.92 4.81 1.01 11.38-2.92 15.4s-9.41 6.07-14.74 7.88c-16.79 5.69-35.27 10.16-52 4.29l-2.29.03z"/>
    <path d="M276.65 315.25c1.65 2.59 4.43 2.55 6.98 1.41 2.25-1.01 4.6-2.5 6.41-4.17 2.04-1.88 3.57-4.26 5.78-5.96 2.15-1.65 4.68-2.72 7.33-3.23 3.17-.61 6.43.02 9.63-.47 2.67-.41 5.22-1.57 7.44-3.08 4.64-3.16 8-7.66 12.29-11.2 3.66-3.02 9.25-6.05 13.83-3.18 4.3 2.7 3.9 8.35 1.59 12.24-2.79 4.7-8.22 7.09-13.15 8.86-5.96 2.14-12.05 4.02-18.22 5.46-6.8 1.58-13.75 2.55-20.74 2.27-3.44-.14-6.83-.6-10.17-1.45-1.51-.39-3.13-1.2-4.68-1.26-.72-.03-1.44.01-2.16.02-3.22.02-3.22 5.02 0 5 .66-.01 1.36-.08 2.02-.02.06.01.17-.02.24 0-.68-.15.69.35.66.34.86.27 1.73.52 2.6.74 3.25.83 6.59 1.32 9.93 1.55 6.55.44 13.15-.26 19.58-1.5 6.63-1.28 13.11-3.21 19.5-5.36 5.71-1.92 11.6-4.08 15.99-8.38 4.04-3.96 6.49-10.23 4.86-15.82-1.7-5.85-7.53-9.45-13.51-8.72-6.21.76-11.22 4.92-15.45 9.23-3.61 3.67-7.41 8.04-12.64 9.24-1.72.4-3.5.29-5.25.26-1.92-.03-3.81.08-5.69.46-3.43.69-6.63 2.29-9.34 4.48-2.4 1.94-4.02 4.7-6.47 6.56-1.07.82-2.33 1.53-3.51 2.19-.48.27-.95.52-1.48.67-.14.04-.32.18-.41.07.09.11.42.07.54.25-1.73-2.74-6.06-.23-4.33 2.5zm-43.14-86.2c3.59 2.85 7.97 5.88 12.39 4.63 3.13-.88 5.26-3.68 7.27-6.24 4.52-5.75 10-11.35 17.11-13.07 5.7-1.38 11.72-.08 17.53-.88a24.75 24.75 0 0 0 16.44-9.85c1.23-1.69 2.26-3.66 2.18-5.74-.15-3.73-5.51-3.03-9.13-3.92-5.93-1.46-11.79-1.36-17.23 1.43-5.43 2.79-9.03 4.85-14.4 7.75-4.01 2.17-8.27 3.84-12.29 5.98a59.14 59.14 0 0 0-19.86 17.21"/>
    <path d="M231.74 230.82c4.89 3.86 11.28 7.87 17.43 4.13 2.48-1.51 4.23-3.82 6.01-6.05 1.8-2.26 3.7-4.45 5.83-6.41 2.03-1.87 4.28-3.51 6.81-4.65 2.79-1.27 5.83-1.6 8.86-1.63 3.4-.03 6.81.25 10.21-.1 3.09-.32 6-1.1 8.83-2.38 5.12-2.31 10.27-6.65 12.44-11.95 1.03-2.51 1.27-5.73-.94-7.7-1.81-1.62-4.38-1.82-6.68-2.09-2.48-.29-5.2-1.05-7.89-1.31-3.17-.3-6.45-.06-9.51.84-3.24.94-6.2 2.69-9.16 4.28l-8.3 4.53c-6.5 3.53-13.47 6.09-19.57 10.35-5.7 3.98-10.63 8.84-14.76 14.43-.8 1.09-.18 2.79.9 3.42 1.27.74 2.62.19 3.42-.9a56.1 56.1 0 0 1 11.29-11.43c4.74-3.57 9.98-6.07 15.32-8.57 5.38-2.52 10.5-5.56 15.75-8.33 2.63-1.4 5.18-2.78 8.13-3.38 2.69-.55 5.56-.47 8.26.01l7.03 1.17c.42.06 1.47.25 2.09.49-.41-.16.74.54.32.18.44.37-.03-.18.08.11-.01-.03-.03.2 0 .04-.2 1.15-.32 2.03-.92 3.07-.66 1.14-1.48 2.17-2.37 3.13-1.71 1.84-3.68 3.34-5.89 4.53-2.19 1.18-4.58 1.97-7.03 2.36-2.87.45-5.82.27-8.71.22-3.14-.05-6.32 0-9.39.75-2.62.64-5.15 1.8-7.41 3.27-2.58 1.68-4.91 3.75-7.01 5.99-2.03 2.17-3.76 4.58-5.7 6.81-1.67 1.92-3.65 3.71-6.39 3.4-2.92-.33-5.59-2.4-7.82-4.16-1.06-.84-2.5-1.03-3.54 0-.89.86-1.09 2.68-.02 3.53h0z"/>
  </g>
  <g fill="none" class="W Z" transform="matrix(1.270251, 0, 0, 1.270251, -7.393378, 23.812765)" style="stroke: rgb(0, 0, 0); stroke-width: 8px;">
    <ellipse cx="299.7" cy="254.11" rx="73.28" ry="61.68"/>
    <g class="U c" style="stroke: rgb(0, 0, 0); stroke-linejoin: round; stroke-miterlimit: 10; stroke-width: 8px;">
      <path d="M383.67 288.31l-.11-.27c-3.02-7.03-7.39-13.38-12.82-18.75a52.68 52.68 0 0 0 2.25-15.19c0-34.07-32.81-61.68-73.28-61.68s-73.28 27.62-73.28 61.68a52.34 52.34 0 0 0 2.25 15.19c-5.43 5.36-9.79 11.72-12.82 18.75l-.11.27c-1.59 3.68 1.27 7.74 5.28 7.49 6.91-.44 13.68-2.04 20.06-4.69 13.37 14.99 34.66 24.69 58.64 24.69s45.27-9.7 58.64-24.69c6.37 2.65 13.15 4.25 20.06 4.69h0c3.97.26 6.83-3.8 5.24-7.49z"/>
      <path d="M299.7 192.43c25.82 0 48.5 11.25 61.56 28.23v-9.06c-.21-6.49-4.36-13.81-11.87-16.13-3.52-.47-6.44-2.96-7.46-6.37l-1.32-4.4c-1.92-3.78-6.17-5.77-10.3-4.84l-6.28 2.87c-2.46 1.13-5.38.5-7.16-1.54l-6.87-7.85c-3.85-2.96-12.61-5.59-18.03.51h0c-5.42 6.48-6.87 12.77-5.75 18.71l-.13.94c4.41-.69 8.96-1.07 13.61-1.07z"/>
    </g>
  </g>
  <g fill="#95d8eb" transform="matrix(1.270251, 0, 0, 1.270251, -7.393378, 23.812765)" style="">
    <circle cx="251.57" cy="193.05" r="3.72"/>
    <circle cx="264.45" cy="178.08" r="7.37"/>
  </g>
  <g fill="#fff" transform="matrix(1.270251, 0, 0, 1.270251, -7.393378, 23.812765)" style="">
    <circle cx="266.22" cy="174.82" r="1.77"/>
    <circle cx="252.46" cy="191.54" r=".89"/>
    <circle cx="365.09" cy="307.18" r="1.34"/>
  </g>
</svg>